<svg width="370" height="485" viewBox="0 0 370 485" fill="none" xmlns="http://www.w3.org/2000/svg">
<g clip-path="url(#clip0_894_3894)">
<rect x="1" y="1" width="368" height="483" rx="15" fill="#030303"/>
<g clip-path="url(#clip1_894_3894)">
<path d="M60.5598 630.06C31.1298 613.1 18.4198 601.23 20.5798 592.69C24.3498 577.77 74.1598 576.4 137.22 574.65C185.87 573.31 241.01 571.78 286.97 563.69C340.06 554.34 370.38 537.97 379.66 513.63C385.78 497.57 382.54 477.65 370.02 454.43C356.22 428.83 330.7 398.39 294.19 363.94C196.3 271.6 155.95 209.11 174.26 178.22C182.21 164.8 201.29 157.38 230.96 156.16C254.59 155.18 284.99 158.12 321.31 164.87C383.12 176.36 441.47 195.2 442.05 195.38C442.68 195.67 499.76 222.48 561.44 242.04C597.65 253.52 628.34 260.29 652.65 262.17C682.91 264.5 703.26 259.22 713.14 246.46C737.64 214.85 699.25 137.61 599.03 16.87L599.8 16.23C700.36 137.38 738.76 215.04 713.93 247.07C703.83 260.11 683.18 265.52 652.57 263.16C628.18 261.28 597.42 254.49 561.13 242.99C499.38 223.41 442.25 196.58 441.68 196.31C441.16 196.14 382.86 177.32 321.12 165.85C239.58 150.7 189.1 155.15 175.12 178.73C157.08 209.17 197.37 271.24 294.88 363.22C331.48 397.74 357.06 428.27 370.91 453.97C383.57 477.46 386.83 497.65 380.6 514C371.18 538.69 340.62 555.27 287.15 564.69C241.11 572.8 185.93 574.32 137.25 575.66C77.0898 577.32 25.1398 578.76 21.5498 592.94C19.5498 600.87 32.4698 612.73 61.0598 629.2L60.5598 630.06Z" fill="#181818"/>
<path d="M51.1399 632.8C22.3399 616.51 9.87994 604.92 11.9199 596.32C15.5399 581.1 65.4799 578.72 128.7 575.71C177.57 573.38 232.97 570.75 279.15 561.59C332.51 551.01 362.95 533.71 372.22 508.71C378.23 492.49 375.14 472.65 363.01 449.73C349.66 424.5 324.94 394.73 289.54 361.24C194.06 270.91 154.96 209.16 173.33 177.7C181.36 163.94 200.45 156.01 230.06 154.12C253.65 152.62 283.95 154.92 320.15 160.97C381.74 171.26 439.82 189.06 440.4 189.24C441.02 189.52 497.52 215.31 558.74 233.71C615.12 250.65 687.12 264.62 710 234.96C734.89 202.7 698.09 126.02 600.61 7.06995L601.38 6.43994C699.19 125.8 736 202.9 710.79 235.58C700.5 248.91 679.82 254.79 649.33 253.06C625.03 251.68 594.46 245.49 558.45 234.67C497.17 216.26 440.61 190.44 440.05 190.18C439.53 190.02 381.51 172.24 319.98 161.96C238.74 148.39 188.33 154.01 174.2 178.21C156.1 209.21 195.14 270.55 290.24 360.51C325.72 394.07 350.5 423.93 363.91 449.26C376.17 472.43 379.29 492.55 373.17 509.05C363.77 534.4 333.08 551.91 279.36 562.56C233.1 571.73 177.67 574.37 128.76 576.7C68.4399 579.57 16.3499 582.05 12.8999 596.54C10.9999 604.52 23.6699 616.09 51.6399 631.91L51.1399 632.8Z" fill="#181818"/>
<path d="M41.6899 635.74C13.5099 620.1 1.27991 608.79 3.20991 600.15C6.66991 584.63 56.7599 581.24 120.18 576.95C169.31 573.62 224.99 569.86 271.41 559.62C325.06 547.79 355.64 529.56 364.89 503.88C370.79 487.51 367.82 467.75 356.08 445.15C343.17 420.3 319.24 391.2 284.94 358.66C191.85 270.33 153.98 209.3 172.38 177.28C180.49 163.17 199.59 154.72 229.16 152.16C252.71 150.13 282.95 151.8 319.03 157.14C380.43 166.22 438.28 183 438.86 183.17C439.48 183.44 495.43 208.23 556.2 225.46C612.17 241.33 683.77 253.88 707.07 223.54C732.35 190.61 697.12 114.48 602.34 -2.72989L603.12 -3.35986C698.22 114.26 733.46 190.8 707.86 224.15C697.39 237.79 676.68 244.14 646.28 243.03C622.06 242.15 591.66 236.56 555.91 226.42C495.07 209.16 439.07 184.36 438.51 184.11C438 183.96 380.21 167.2 318.87 158.13C237.87 146.15 187.51 152.94 173.25 177.78C155.11 209.35 192.92 269.96 285.63 357.94C320 390.56 344 419.75 356.97 444.7C368.85 467.56 371.83 487.59 365.83 504.23C356.45 530.26 325.64 548.7 271.62 560.61C225.12 570.86 169.4 574.63 120.24 577.96C59.7299 582.05 7.47992 585.59 4.17992 600.38C2.38992 608.41 14.8099 619.69 42.1699 634.87L41.6899 635.74Z" fill="#181818"/>
<path d="M32.19 638.87C4.99997 624.08 -7.35004 612.73 -5.57004 604.17C-2.28004 588.35 48 583.94 111.65 578.35C161.06 574.01 217.06 569.1 263.76 557.76C317.74 544.66 348.46 525.47 357.69 499.1C363.46 482.6 360.63 462.93 349.26 440.64C336.78 416.16 313.61 387.73 280.41 356.12C189.68 269.75 153.01 209.44 171.43 176.86C179.61 162.39 198.74 153.41 228.27 150.18C251.8 147.61 281.98 148.65 317.97 153.28C379.22 161.15 436.87 176.91 437.45 177.07C438.07 177.33 493.49 201.12 553.84 217.2C609.42 232.01 680.66 243.14 704.4 212.08C730.08 178.47 696.4 102.86 604.3 -12.64L605.08 -13.26C697.5 102.65 731.19 178.68 705.2 212.7C694.54 226.65 673.79 233.49 643.48 233C619.33 232.62 589.09 227.63 553.58 218.17C493.16 202.07 437.68 178.26 437.12 178.02C436.61 177.89 379.02 162.15 317.84 154.28C261.5 147.04 190.52 145.16 172.31 177.36C154.14 209.49 190.75 269.39 281.11 355.4C314.39 387.08 337.63 415.61 350.16 440.19C361.66 462.73 364.51 482.67 358.64 499.44C349.29 526.15 318.34 545.55 264 558.74C217.23 570.09 161.18 575.02 111.74 579.36C51 584.69 -1.45003 589.3 -4.59003 604.39C-6.27003 612.46 5.91998 623.45 32.67 638L32.19 638.87Z" fill="#181818"/>
<path d="M22.66 642.21C-3.93998 628.04 -16.06 616.99 -14.4 608.4C-11.29 592.29 39.2 586.84 103.11 579.94C152.84 574.57 209.19 568.49 256.19 556.03C310.53 541.63 341.41 521.47 350.61 494.4C356.25 477.78 353.54 458.22 342.54 436.24C330.48 412.14 308.07 384.37 275.94 353.69C187.54 269.27 152.06 209.66 170.48 176.53C178.73 161.68 197.88 152.17 227.4 148.26C250.92 145.14 281.05 145.55 316.98 149.46C378.11 156.12 435.6 170.85 436.18 171C436.8 171.25 491.72 194.05 551.68 208.98C606.91 222.73 677.81 232.45 701.98 200.65C728.05 166.35 695.91 91.24 606.44 -22.6L607.23 -23.22C697.01 91.03 729.16 166.55 702.78 201.25C691.93 215.52 671.11 222.83 640.89 222.99C616.76 223.15 586.7 218.73 551.42 209.94C491.38 194.99 436.4 172.17 435.85 171.94C435.34 171.82 377.91 157.1 316.85 150.45C260.61 144.32 189.73 143.96 171.35 177.01C153.18 209.69 188.6 268.89 276.63 352.96C308.84 383.72 331.31 411.58 343.43 435.78C354.56 458 357.29 477.83 351.56 494.71C342.25 522.12 311.14 542.49 256.45 556.98C209.38 569.46 152.98 575.54 103.22 580.92C42.23 587.5 -10.44 593.19 -13.41 608.58C-14.98 616.67 -3.01997 627.38 23.14 641.31L22.66 642.21Z" fill="#181818"/>
<path d="M13.08 645.73C-12.93 632.18 -24.82 621.41 -23.29 612.81C-20.37 596.41 30.35 589.91 94.56 581.68C144.63 575.27 201.39 567.99 248.71 554.4C303.44 538.68 334.5 517.53 343.65 489.75C349.16 473.03 346.56 453.58 335.91 431.92C324.25 408.21 302.59 381.09 271.53 351.32C185.44 268.82 151.11 209.92 169.52 176.24C177.84 161.01 197.02 150.95 226.52 146.35C250.03 142.68 280.14 142.44 316.02 145.64C377.07 151.08 434.43 164.78 435.01 164.92C435.62 165.16 490.08 186.97 549.68 200.76C584.67 208.85 614.56 212.64 638.5 212C668.33 211.21 688.96 203.54 699.8 189.2C726.26 154.2 695.64 79.56 608.77 -32.65L609.56 -33.26C696.73 79.36 727.36 154.41 700.59 189.81C689.55 204.41 668.66 212.21 638.51 213.01C614.47 213.64 584.5 209.85 549.43 201.74C489.75 187.94 435.24 166.1 434.69 165.88C434.19 165.76 376.88 152.08 315.91 146.65C259.76 141.65 188.92 142.81 170.38 176.73C152.22 209.96 186.48 268.46 272.21 350.61C303.36 380.46 325.09 407.67 336.8 431.49C347.56 453.39 350.18 473.1 344.59 490.07C335.32 518.19 304.05 539.55 248.97 555.37C201.57 568.99 144.77 576.26 94.6701 582.68C33.3901 590.53 -19.53 597.31 -22.32 612.99C-23.77 621.1 -12.04 631.52 13.53 644.84L13.08 645.73Z" fill="#181818"/>
<path d="M3.45005 649.47C-21.9799 636.52 -33.66 626.05 -32.25 617.44C-29.53 600.75 21.45 593.19 86 583.62C136.45 576.14 193.63 567.66 241.31 552.9C296.47 535.83 327.7 513.68 336.81 485.18C342.18 468.38 339.68 449.04 329.39 427.71C318.13 404.39 297.2 377.92 267.18 349.05C183.37 268.45 150.18 210.24 168.55 176.02C176.94 160.4 196.15 149.78 225.66 144.48C249.18 140.25 279.28 139.37 315.13 141.84C376.13 146.05 433.41 158.72 433.98 158.85C434.59 159.08 488.6 179.92 547.86 192.56C582.65 199.98 612.4 203.16 636.32 202.02C666.11 200.6 686.81 192.43 697.86 177.75C724.72 142.05 695.59 67.8501 611.3 -42.7699L612.09 -43.3799C696.69 67.6401 725.82 142.24 698.66 178.35C687.42 193.29 666.47 201.59 636.37 203.02C612.37 204.16 582.52 200.97 547.65 193.53C488.31 180.87 434.24 160.01 433.7 159.8C433.2 159.69 375.98 147.04 315.06 142.83C258.95 138.96 188.14 141.65 169.44 176.48C151.31 210.25 184.43 268.07 267.88 348.32C297.99 377.28 318.99 403.84 330.3 427.27C340.71 448.84 343.22 468.42 337.78 485.48C328.57 514.32 297.11 536.68 241.62 553.85C193.87 568.63 136.64 577.11 86.16 584.6C22.02 594.11 -28.64 601.62 -31.25 617.59C-32.58 625.71 -21.0699 635.84 3.92005 648.57L3.45005 649.47Z" fill="#181818"/>
<path d="M-6.23993 653.4C-31.0999 641.05 -42.5699 630.86 -41.2899 622.26C-38.7799 605.29 12.4901 596.66 77.4001 585.73C128.26 577.16 185.91 567.45 233.97 551.52C289.58 533.08 321.02 509.91 330.07 480.67C335.29 463.8 332.9 444.6 322.94 423.6C312.07 400.67 291.86 374.85 262.86 346.86C181.3 268.14 149.23 210.62 167.54 175.87C175.99 159.84 195.25 148.66 224.77 142.65C248.31 137.86 278.42 136.32 314.25 138.06C375.23 141.03 432.46 152.67 433.04 152.79C433.65 153.01 487.24 172.88 546.2 184.38C580.81 191.13 610.46 193.71 634.35 192.06C664.1 190 684.9 181.33 696.15 166.29C723.4 129.87 695.76 56.0999 614.01 -52.9601L614.81 -53.5601C696.86 55.8999 724.5 130.07 696.95 166.89C685.51 182.18 664.47 190.98 634.41 193.06C610.44 194.72 580.69 192.13 546 185.36C486.96 173.85 433.31 153.95 432.77 153.75C432.27 153.65 375.11 142.03 314.2 139.06C258.1 136.33 187.27 140.58 168.43 176.33C150.35 210.63 182.36 267.76 263.56 346.13C292.65 374.2 312.93 400.12 323.85 423.16C333.91 444.4 336.33 463.84 331.03 480.95C321.87 510.51 290.23 533.9 234.29 552.45C186.15 568.41 128.47 578.13 77.5701 586.7C13.0601 597.57 -37.8899 606.15 -40.2999 622.39C-41.4999 630.51 -30.22 640.35 -5.78995 652.49L-6.23993 653.4Z" fill="#181818"/>
<path d="M-15.9801 657.54C-40.2801 645.77 -51.5401 635.87 -50.3901 627.29C-48.1001 610.06 3.4899 600.33 68.7899 588.02C120.09 578.35 178.24 567.38 226.71 550.24C282.81 530.4 314.46 506.19 323.45 476.22C328.53 459.3 326.22 440.25 316.6 419.58C306.11 397.05 286.6 371.87 258.61 344.76C179.28 267.9 148.31 211.06 166.54 175.8C175.05 159.35 194.35 147.6 223.91 140.87C247.48 135.51 277.61 133.3 313.46 134.31C374.46 136.03 431.69 146.63 432.26 146.74C432.87 146.95 486.06 165.86 544.74 176.21C579.19 182.29 608.75 184.27 632.61 182.1C662.35 179.4 683.23 170.22 694.7 154.82C722.34 117.67 696.17 44.3099 616.92 -63.2301L617.72 -63.8201C697.26 44.1199 723.43 117.88 695.49 155.42C683.85 171.06 662.72 180.38 632.69 183.1C608.73 185.27 579.08 183.28 544.55 177.19C485.78 166.82 432.52 147.89 431.99 147.7C431.5 147.61 374.34 137.03 313.41 135.31C277.64 134.3 247.61 136.5 224.12 141.84C194.86 148.5 175.79 160.07 167.42 176.25C149.41 211.07 180.32 267.52 259.3 344.03C287.38 371.24 306.96 396.51 317.5 419.15C327.23 440.05 329.55 459.34 324.4 476.5C315.31 506.8 283.46 531.23 227.03 551.18C178.48 568.35 120.3 579.32 68.9599 589C4.04988 601.24 -47.2201 610.91 -49.4201 627.42C-50.5001 635.53 -39.4201 645.09 -15.5601 656.64L-15.9801 657.54Z" fill="#181818"/>
<path d="M-25.77 661.88C-49.52 650.68 -60.58 641.07 -59.57 632.51C-57.51 615.01 -5.57996 604.18 60.15 590.47C111.92 579.67 170.61 567.43 219.52 549.06C276.14 527.8 308.01 502.53 316.94 471.81C321.87 454.86 319.65 435.96 310.36 415.63C300.24 393.5 281.42 368.97 254.42 342.7C177.3 267.68 147.39 211.52 165.53 175.77C174.09 158.89 193.44 146.56 223.05 139.1C246.66 133.16 276.82 130.27 312.71 130.55C373.77 131.01 431.02 140.57 431.59 140.66C432.2 140.86 485.02 158.81 543.46 168.02C577.76 173.43 607.25 174.8 631.1 172.12C660.83 168.78 681.83 159.08 693.5 143.3C721.53 105.42 696.81 32.44 620.04 -73.61L620.85 -74.2C697.9 32.25 722.62 105.63 694.3 143.9C682.45 159.91 661.22 169.74 631.2 173.12C607.25 175.81 577.68 174.43 543.29 169.01C484.77 159.79 431.87 141.81 431.34 141.63C430.85 141.55 373.67 132.01 312.68 131.55C276.91 131.28 246.81 134.15 223.28 140.07C193.97 147.45 174.84 159.61 166.41 176.22C148.49 211.53 178.34 267.3 255.11 341.98C282.2 368.33 301.09 392.97 311.26 415.21C320.66 435.77 322.89 454.9 317.89 472.08C308.87 503.12 276.8 528.61 219.86 549.99C170.88 568.39 112.15 580.64 60.34 591.45C-4.99995 605.08 -56.6099 615.85 -58.5899 632.63C-59.5399 640.71 -48.67 649.99 -25.36 660.98L-25.77 661.88Z" fill="#181818"/>
<path d="M-35.64 666.43C-58.85 655.79 -69.71 646.47 -68.83 637.94C-67 620.19 -14.71 608.24 51.49 593.1C103.77 581.15 163.03 567.6 212.4 547.98C269.58 525.26 301.68 498.92 310.54 467.45C315.31 450.5 313.18 431.76 304.2 411.78C294.44 390.06 276.3 366.16 250.27 340.73C175.33 267.54 146.47 212.05 164.49 175.83C173.1 158.51 192.51 145.58 222.18 137.39C245.84 130.86 276.06 127.3 312 126.82C373.15 126.01 430.47 134.51 431.05 134.6C431.65 134.79 484.14 151.79 542.36 159.85C576.53 164.58 605.95 165.36 629.81 162.15C659.55 158.15 680.66 147.93 692.55 131.77C720.96 93.1501 697.68 20.5301 623.37 -84.0699L624.18 -84.6499C698.78 20.3301 722.05 93.3501 693.35 132.36C681.29 148.75 659.95 159.11 629.93 163.14C605.98 166.36 576.46 165.58 542.2 160.83C483.9 152.75 431.34 135.73 430.81 135.56C430.32 135.49 373.07 126.99 312 127.81C276.15 128.29 246.02 131.83 222.44 138.34C193.06 146.45 173.87 159.21 165.39 176.26C147.59 212.06 176.38 267.15 250.97 340C277.09 365.51 295.3 389.52 305.11 411.35C314.19 431.56 316.34 450.52 311.5 467.71C302.55 499.5 270.26 526.06 212.77 548.9C163.32 568.55 104.03 582.11 51.71 594.07C-14.1 609.12 -66.0799 621 -67.8399 638.04C-68.6699 646.09 -58 655.08 -35.2299 665.52L-35.64 666.43Z" fill="#181818"/>
<path d="M-45.5701 671.19C-68.2501 661.1 -78.9201 652.07 -78.1701 643.58C-76.5901 625.59 -23.9101 612.49 42.7899 595.91C95.6099 582.78 155.47 567.9 205.34 547C263.1 522.8 295.45 495.37 304.23 463.14C308.85 446.19 306.79 427.64 298.13 408C288.73 386.69 271.25 363.42 246.17 338.82C173.39 267.43 145.56 212.63 163.43 175.94C172.09 158.17 191.56 144.63 221.3 135.69C245.02 128.56 275.31 124.32 311.33 123.08C372.61 120.98 430.04 128.42 430.62 128.5C431.22 128.68 483.4 144.73 541.42 151.65C575.47 155.71 604.85 155.88 628.72 152.14C658.48 147.49 679.72 136.73 691.83 120.17C720.62 80.79 698.77 8.52003 626.87 -94.65L627.69 -95.22C699.86 8.34003 721.71 81 692.64 120.76C680.37 137.54 658.91 148.43 628.87 153.13C604.9 156.88 575.44 156.71 541.29 152.64C483.18 145.71 430.93 129.64 430.41 129.47C429.92 129.41 372.56 121.98 311.36 124.08C275.43 125.31 245.23 129.54 221.59 136.65C192.13 145.51 172.87 158.88 164.34 176.38C146.67 212.64 174.45 267.05 246.88 338.11C272.04 362.8 289.6 386.17 299.05 407.6C307.81 427.46 309.88 446.23 305.2 463.4C296.33 495.94 263.79 523.59 205.73 547.91C155.79 568.83 95.8899 583.73 43.0399 596.86C-23.2701 613.34 -75.6501 626.36 -77.1701 643.64C-77.8701 651.65 -67.4001 660.35 -45.1601 670.25L-45.5701 671.19Z" fill="#181818"/>
<path d="M-55.5801 676.16C-77.7401 666.61 -88.2201 657.86 -87.6101 649.43C-86.2901 631.21 -33.1801 616.96 34.0499 598.91C87.4299 584.58 147.94 568.34 198.34 546.14C256.72 520.42 289.34 491.89 298.03 458.91C307.31 423.73 288.5 382.72 242.12 337.02C171.48 267.41 144.64 213.3 162.35 176.17C171.05 157.94 190.58 143.77 220.41 134.07C244.2 126.33 274.58 121.39 310.7 119.39C372.16 115.98 429.73 122.36 430.31 122.42C430.91 122.59 482.8 137.69 540.66 143.46C574.62 146.85 603.96 146.4 627.86 142.14C657.66 136.82 679.03 125.52 691.36 108.55C720.53 68.4199 700.08 -3.53011 630.58 -105.3L631.41 -105.86C701.18 -3.7001 721.62 68.6299 692.18 109.14C679.69 126.33 658.11 137.76 628.04 143.12C604.05 147.4 574.62 147.85 540.56 144.45C482.61 138.67 430.64 123.54 430.12 123.39C429.63 123.34 372.13 116.98 310.75 120.38C274.72 122.38 244.43 127.3 220.72 135.02C191.17 144.63 171.83 158.62 163.26 176.6C145.75 213.3 172.52 267.03 242.82 336.3C267.05 360.18 283.96 382.93 293.07 403.94C301.53 423.44 303.52 442.02 299 459.15C290.22 492.44 257.42 521.19 198.74 547.04C148.28 569.27 87.7299 585.52 34.3099 599.86C-32.5401 617.8 -85.3401 631.98 -86.6101 649.48C-87.1901 657.43 -76.9101 665.85 -55.1801 675.21L-55.5801 676.16Z" fill="#181818"/>
<path d="M-65.66 681.35C-87.31 672.32 -97.61 663.86 -97.13 655.5C-96.07 637.07 -42.52 621.64 25.27 602.1C79.25 586.54 140.44 568.91 191.38 545.39C250.42 518.13 283.3 488.48 291.91 454.74C300.86 419.69 282.75 379.5 238.09 335.29C169.56 267.45 143.7 214.02 161.23 176.49C169.97 157.78 189.57 142.98 219.5 132.51C243.38 124.15 273.86 118.5 310.1 115.72C371.77 110.99 429.53 116.28 430.11 116.33C430.71 116.49 482.35 130.65 540.07 135.27C573.95 137.98 603.27 136.92 627.21 132.12C657.06 126.13 678.57 114.28 691.13 96.89C720.68 56 701.62 -15.64 634.48 -116.05L635.31 -116.61C702.71 -15.82 721.76 56.2 691.94 97.47C679.22 115.07 657.51 127.05 627.4 133.09C603.37 137.91 573.95 138.97 539.98 136.26C482.16 131.63 430.45 117.45 429.93 117.3C429.44 117.26 371.75 111.98 310.17 116.71C274.02 119.49 243.63 125.12 219.83 133.45C190.17 143.83 170.76 158.46 162.14 176.91C144.81 214.02 170.6 267.07 238.8 334.58C262.12 357.66 278.39 379.8 287.16 400.4C295.32 419.54 297.24 437.9 292.88 454.99C284.19 489.04 251.13 518.91 191.8 546.3C140.79 569.85 79.56 587.5 25.54 603.06C-41.87 622.49 -95.12 637.83 -96.14 655.56C-96.59 663.45 -86.5 671.58 -65.29 680.43L-65.66 681.35Z" fill="#181818"/>
<path d="M-75.83 686.75C-96.99 678.23 -107.1 670.06 -106.75 661.77C-105.96 643.14 -51.95 626.51 16.45 605.46C71.07 588.65 132.97 569.6 184.49 544.73C244.22 515.9 277.39 485.11 285.91 450.62C294.52 415.74 277.1 376.38 234.13 333.63C167.69 267.54 142.79 214.8 160.11 176.89C168.88 157.7 188.56 142.25 218.6 130.99C242.57 122 273.18 115.63 309.56 112.06C371.47 105.98 429.47 110.17 430.05 110.22C430.65 110.37 482.06 123.59 539.68 127.05C573.5 129.08 602.82 127.4 626.8 122.05C656.72 115.38 678.38 102.97 691.18 85.15C721.1 43.49 703.41 -27.86 638.61 -126.93L639.45 -127.48C704.5 -28.03 722.18 43.7 692 85.73C679.05 103.76 657.19 116.3 627.02 123.02C602.94 128.39 573.53 130.07 539.61 128.04C481.89 124.57 430.4 111.33 429.89 111.19C429.4 111.16 371.48 106.98 309.65 113.05C273.36 116.62 242.84 122.96 218.95 131.92C189.17 143.09 169.68 158.36 161.02 177.3C143.89 214.8 168.73 267.15 234.84 332.92C278.08 375.93 295.59 415.61 286.88 450.86C278.29 485.66 244.94 516.66 184.92 545.63C133.33 570.54 71.39 589.6 16.74 606.42C-51.27 627.35 -105 643.89 -105.75 661.81C-106.08 669.62 -96.17 677.48 -75.45 685.82L-75.83 686.75Z" fill="#181818"/>
<path d="M-86.0701 692.37C-106.74 684.35 -116.68 676.46 -116.46 668.26C-115.95 649.44 -61.43 631.6 7.58995 609.01C62.8699 590.92 125.52 570.42 177.66 544.17C238.11 513.73 271.59 481.8 280.01 446.55C288.29 411.88 271.54 373.35 230.22 332.04C165.84 267.68 141.87 215.64 158.96 177.37C167.76 157.68 187.52 141.58 217.69 129.52C241.77 119.89 272.51 112.79 309.06 108.42C371.26 100.98 429.53 104.06 430.11 104.09C430.71 104.23 481.91 116.51 539.47 118.81C573.25 120.16 602.57 117.85 626.62 111.96C656.62 104.61 678.44 91.6199 691.48 73.3599C721.77 30.9299 705.44 -40.1501 642.95 -137.9L643.79 -138.44C706.53 -40.3101 722.84 31.1499 692.29 73.9399C679.11 92.3999 657.09 105.52 626.85 112.94C602.71 118.86 573.29 121.17 539.41 119.82C481.76 117.52 430.48 105.21 429.96 105.09C429.47 105.07 371.28 102 309.16 109.43C272.7 113.8 242.04 120.87 218.05 130.47C188.13 142.43 168.55 158.36 159.87 177.8C142.96 215.65 166.87 267.31 230.92 331.35C272.5 372.92 289.34 411.77 280.97 446.8C272.48 482.35 238.83 514.5 178.1 545.08C125.9 571.36 63.2099 591.88 7.89995 609.98C-60.7501 632.44 -114.97 650.19 -115.46 668.3C-115.67 676.03 -105.94 683.6 -85.7101 691.45L-86.0701 692.37Z" fill="#181818"/>
<path d="M-96.41 698.21C-116.61 690.68 -126.38 683.07 -126.28 674.96C-126.06 655.97 -71.02 636.9 -1.34 612.75C54.64 593.35 118.08 571.36 170.85 543.71C232.05 511.64 265.85 478.54 274.17 442.54C282.13 408.12 266.03 370.43 226.32 330.53C163.98 267.88 140.92 216.55 157.76 177.96C166.58 157.77 186.42 141 216.74 128.12C240.94 117.84 271.84 110 308.58 104.81C371.11 95.9799 429.69 97.93 430.28 97.95C430.88 98.08 481.91 109.42 539.42 110.55C573.17 111.21 602.52 108.27 626.65 101.82C656.75 93.77 678.74 80.2 692.02 61.48C722.67 18.28 707.69 -52.54 647.48 -149.02L648.33 -149.55C708.77 -52.7001 723.75 18.4899 692.84 62.0499C679.42 80.9599 657.24 94.67 626.91 102.78C602.69 109.26 573.26 112.2 539.4 111.54C481.79 110.41 430.68 99.0499 430.17 98.9299C429.68 98.92 371.17 96.9699 308.73 105.8C272.08 110.98 241.27 118.8 217.15 129.04C187.08 141.82 167.41 158.41 158.7 178.36C142.03 216.53 165.03 267.49 227.05 329.82C267.01 369.99 283.2 407.99 275.16 442.76C266.77 479.06 232.81 512.37 171.33 544.59C118.49 572.28 55.01 594.28 -1 613.69C-70.31 637.71 -125.06 656.68 -125.27 674.97C-125.36 682.61 -115.8 689.9 -96.05 697.27L-96.41 698.21Z" fill="#181818"/>
<path d="M-106.84 704.27C-126.57 697.21 -136.18 689.89 -136.21 681.88C-136.28 662.74 -80.6901 642.41 -10.3101 616.67C46.3899 595.93 110.66 572.43 164.1 543.34C226.09 509.6 260.23 475.33 268.44 438.59C276.07 404.46 260.61 367.61 222.48 329.08C162.16 268.12 139.98 217.5 156.56 178.63C165.39 157.92 185.33 140.47 215.81 126.76C240.14 115.82 271.21 107.22 308.17 101.2C371.07 90.95 430.01 91.76 430.6 91.76C431.2 91.88 481.84 102.23 539.17 102.23C539.31 102.23 539.45 102.23 539.59 102.23C592.58 102.18 662.18 93 692.85 49.51C723.86 5.52998 710.2 -65.04 652.25 -160.26L653.1 -160.78C711.28 -65.19 724.92 5.74995 693.66 50.08C679.99 69.46 657.63 83.75 627.2 92.57C602.9 99.61 573.41 103.2 539.57 103.22C539.44 103.22 539.3 103.22 539.17 103.22C481.74 103.22 431 92.85 430.5 92.74C429.94 92.74 371.1 91.95 308.33 102.18C271.46 108.19 240.48 116.76 216.23 127.67C185.99 141.27 166.23 158.55 157.5 179.02C141.09 217.48 163.2 267.73 223.21 328.37C261.59 367.16 277.15 404.31 269.43 438.8C261.14 475.84 226.85 510.33 164.59 544.22C111.09 573.34 46.7799 596.86 -9.95014 617.6C-79.9601 643.2 -135.26 663.43 -135.19 681.86C-135.16 689.39 -125.77 696.41 -106.48 703.31L-106.84 704.27Z" fill="#181818"/>
<path d="M-117.37 710.55C-136.65 703.96 -146.1 696.91 -146.25 689.02C-146.61 669.75 -90.45 648.14 -19.35 620.79C91.99 577.96 244.48 519.3 262.78 434.71C270.1 400.9 255.25 364.9 218.66 327.71C160.32 268.42 139.01 218.53 155.3 179.42C164.15 158.18 184.17 140.04 214.82 125.49C239.29 113.87 270.55 104.5 307.75 97.64C371.05 85.96 430.4 85.58 430.99 85.58C431.59 85.68 482.36 95.15 539.87 93.91C592.88 92.77 662.63 82.06 693.87 37.47C725.23 -7.28 712.88 -77.63 657.17 -171.61L658.03 -172.12C713.97 -77.77 726.3 -7.06 694.69 38.04C680.77 57.9 658.23 72.8 627.67 82.33C603.27 89.94 573.73 94.17 539.87 94.9C482.25 96.14 431.4 86.66 430.89 86.56C430.39 86.57 371.12 86.94 307.91 98.61C270.8 105.46 239.62 114.8 215.24 126.38C184.82 140.82 164.96 158.79 156.22 179.79C140.1 218.5 161.34 268.02 219.37 327C256.21 364.44 271.15 400.75 263.75 434.91C255.57 472.69 220.93 508.36 157.85 543.95C103.65 574.53 38.49 599.6 -19 621.71C-89.73 648.92 -145.61 670.41 -145.25 688.99C-145.11 696.41 -135.89 703.16 -117.05 709.6L-117.37 710.55Z" fill="#181818"/>
<path d="M-128 717.07C-146.84 710.92 -156.13 704.15 -156.4 696.38C-157.06 676.99 -100.3 654.09 -28.4401 625.09C84.4899 579.52 239.16 517.12 257.22 430.88C264.23 397.43 249.98 362.28 214.89 326.41C158.52 268.78 138.04 219.62 154.03 180.3C162.88 158.53 183.01 139.68 213.85 124.26C238.47 111.96 269.95 101.8 307.4 94.07C371.15 80.92 430.94 79.35 431.54 79.34C432.14 79.43 482.82 87.95 540.38 85.52C593.44 83.28 663.37 71.02 695.2 25.32C726.91 -20.2 715.86 -90.33 662.35 -183.11L663.22 -183.61C716.94 -90.46 727.98 -19.98 696.03 25.89C681.86 46.23 659.11 61.75 628.42 72.01C603.91 80.21 574.3 85.09 540.41 86.52C482.74 88.95 431.97 80.42 431.47 80.33C430.97 80.35 371.25 81.92 307.59 95.05C270.22 102.76 238.83 112.89 214.29 125.15C183.68 140.45 163.72 159.13 154.96 180.67C139.13 219.59 159.54 268.38 215.61 325.71C250.95 361.84 265.28 397.29 258.2 431.09C250.14 469.6 215.14 506.46 151.2 543.79C96.28 575.85 30.2199 602.51 -28.0601 626.02C-99.5601 654.87 -156.03 677.65 -155.39 696.35C-155.14 703.66 -146.08 710.13 -127.68 716.13L-128 717.07Z" fill="#181818"/>
<path d="M-138.73 723.81C-157.15 718.1 -166.28 711.61 -166.66 703.95C-167.62 684.46 -110.24 660.25 -37.6 629.59C76.99 581.23 233.92 515 251.74 427.14C258.44 394.09 244.79 359.78 211.16 325.19C156.72 269.19 137.06 220.77 152.73 181.29C161.59 158.98 181.82 139.41 212.86 123.12C237.64 110.12 269.35 99.16 307.09 90.55C371.32 75.9 431.61 73.12 432.22 73.09C432.82 73.17 483.43 80.7401 541.09 77.1C594.23 73.75 664.38 59.92 696.82 13.07C728.88 -33.23 719.1 -103.15 667.77 -194.74L668.64 -195.23C720.18 -103.27 729.93 -33 697.64 13.64C683.2 34.4901 660.25 50.64 629.41 61.64C604.77 70.4301 575.07 75.97 541.14 78.11C483.38 81.75 432.68 74.17 432.17 74.09C431.67 74.12 371.45 76.9 307.31 91.53C269.65 100.12 238.04 111.04 213.33 124.01C182.51 140.18 162.44 159.58 153.67 181.66C138.16 220.75 157.74 268.8 211.88 324.49C245.76 359.34 259.5 393.94 252.73 427.34C244.78 466.56 209.4 504.63 144.58 543.72C88.91 577.3 21.91 605.57 -37.19 630.51C-109.48 661.02 -166.57 685.12 -165.64 703.9C-165.29 711.08 -156.38 717.28 -138.41 722.85L-138.73 723.81Z" fill="#181818"/>
<path d="M-149.58 730.79C-167.58 725.51 -176.57 719.28 -177.06 711.76C-178.33 692.2 -120.3 666.64 -46.8301 634.28C69.4699 583.06 228.76 512.9 246.33 423.44C252.74 390.81 239.65 357.36 207.44 324.02C154.91 269.64 136.05 221.98 151.38 182.37C160.23 159.51 180.57 139.21 211.83 122.03C236.79 108.31 268.74 96.54 306.79 87.04C371.55 70.87 432.38 66.84 432.99 66.8C433.59 66.87 484.17 73.49 541.94 68.63C595.19 64.15 665.59 48.74 698.65 0.709991C731.05 -46.36 722.54 -116.08 673.36 -206.52L674.24 -207C723.62 -116.2 732.11 -46.13 699.48 1.28C684.77 22.65 661.59 39.43 630.59 51.18C605.82 60.56 576.02 66.77 542.01 69.63C484.14 74.49 433.47 67.86 432.96 67.79C432.45 67.83 371.7 71.86 307.03 88.01C269.06 97.49 237.2 109.23 212.31 122.9C181.27 139.96 161.08 160.09 152.32 182.72C137.14 221.93 155.93 269.23 208.17 323.31C240.62 356.9 253.79 390.65 247.32 423.62C239.48 463.54 203.71 502.83 137.96 543.72C81.4999 578.84 13.5399 608.77 -46.4101 635.17C-119.52 667.37 -177.27 692.8 -176.04 711.67C-175.58 718.72 -166.83 724.65 -149.28 729.8L-149.58 730.79Z" fill="#181818"/>
<path d="M-160.53 738.01C-178.13 733.14 -186.97 727.18 -187.57 719.8C-189.14 700.18 -130.44 673.26 -56.1201 639.18C61.9599 585.02 223.68 510.86 241 419.83C247.12 387.66 234.59 355.06 203.77 322.93C153.11 270.14 135.02 223.25 150.01 183.57C158.85 160.15 179.3 139.11 210.8 121.03C235.95 106.59 268.17 93.99 306.55 83.57C371.88 65.84 433.29 60.5399 433.91 60.49C434.51 60.55 485.09 66.21 543 60.12C596.38 54.51 667.09 37.49 700.78 -11.75C733.51 -59.58 726.25 -129.12 679.19 -218.43L680.07 -218.9C727.32 -129.24 734.56 -59.36 701.6 -11.19C686.62 10.71 663.2 28.15 632.01 40.66C607.09 50.65 577.17 57.54 543.08 61.12C485.07 67.22 434.39 61.54 433.89 61.48C433.38 61.53 372.04 66.83 306.8 84.54C268.5 94.93 236.36 107.5 211.29 121.9C180.01 139.86 159.7 160.73 150.95 183.93C136.11 223.22 154.13 269.76 204.5 322.24C235.57 354.62 248.18 387.51 241.99 420.02C224.57 511.55 62.5799 585.84 -55.7001 640.08C-129.66 674 -188.08 700.79 -186.57 719.71C-186.02 726.63 -177.41 732.29 -160.26 737.04L-160.53 738.01Z" fill="#181818"/>
<path d="M-171.62 745.46C-188.83 740.99 -197.53 735.3 -198.23 728.05C-200.11 708.39 -140.71 680.09 -65.52 644.26C54.41 587.12 218.66 508.85 235.74 416.29C241.58 384.61 229.6 352.85 200.11 321.91C151.3 270.69 133.97 224.58 148.59 184.87C157.42 160.89 177.99 139.1 209.73 120.09C235.08 104.91 267.58 91.46 306.33 80.11C372.28 60.8 434.32 54.19 434.94 54.12C435.54 54.17 486.15 58.86 544.23 51.53C597.78 44.77 668.82 26.1201 703.17 -24.36C736.23 -72.96 730.2 -142.32 685.24 -230.52L686.13 -230.97C731.27 -142.42 737.28 -72.71 704 -23.79C688.73 -1.34998 665.07 16.76 633.68 30.04C608.59 40.65 578.54 48.22 544.35 52.53C486.16 59.87 435.46 55.17 434.96 55.12C434.44 55.18 372.48 61.79 306.62 81.08C267.96 92.4 235.54 105.82 210.26 120.95C178.72 139.83 158.29 161.45 149.55 185.21C135.07 224.53 152.33 270.29 200.86 321.21C230.58 352.4 242.66 384.45 236.75 416.46C219.58 509.52 55.06 587.91 -65.06 645.15C-139.9 680.81 -199.02 708.98 -197.21 727.94C-196.56 734.71 -188.1 740.12 -171.35 744.47L-171.62 745.46Z" fill="#181818"/>
<path d="M-182.81 753.15C-199.65 749.07 -208.21 743.63 -209 736.54C-211.18 716.87 -151.07 687.16 -74.9602 649.55C46.8798 589.35 213.73 506.89 230.56 412.84C236.14 381.67 224.67 350.76 196.49 320.97C149.5 271.3 132.89 225.98 147.15 186.29C155.96 161.75 176.66 139.19 208.66 119.25C234.22 103.32 267.03 89.0099 306.16 76.71C372.76 55.77 435.47 47.83 436.1 47.75C436.7 47.79 487.36 51.51 545.66 42.92C599.41 35 670.83 14.7 705.84 -37.06C739.23 -86.41 734.41 -155.6 691.53 -242.72L692.43 -243.16C735.49 -155.7 740.28 -86.17 706.67 -36.5C691.11 -13.5 667.19 5.28995 635.57 19.36C610.31 30.5999 580.1 38.86 545.78 43.91C487.37 52.51 436.62 48.78 436.12 48.74C435.59 48.8199 372.96 56.75 306.45 77.66C267.4 89.94 234.68 104.22 209.19 120.1C177.38 139.92 156.83 162.3 148.09 186.63C133.98 225.94 150.51 270.91 197.22 320.28C225.64 350.31 237.19 381.51 231.55 413.01C214.63 507.56 47.5098 590.14 -74.5202 650.44C-150.28 687.88 -210.12 717.45 -208.01 736.42C-207.27 743.05 -198.95 748.2 -182.58 752.17L-182.81 753.15Z" fill="#181818"/>
<path d="M-194.14 761.09C-210.61 757.39 -219.05 752.21 -219.93 745.26C-222.42 725.59 -161.56 694.46 -84.5001 655.04C39.3099 591.7 208.87 504.96 225.46 409.45C230.78 378.82 219.83 348.75 192.91 320.08C147.7 271.93 131.81 227.43 145.68 187.8C154.47 162.69 175.29 139.36 207.58 118.47C233.37 101.78 266.49 86.58 306.03 73.31C373.33 50.71 436.76 41.4 437.39 41.31L437.44 41.3H437.49C437.99 41.33 488.73 44.0699 547.27 34.21C601.24 25.11 673.08 3.13995 708.78 -49.92C742.49 -100.02 738.88 -169.05 698.04 -255.11L698.94 -255.54C739.94 -169.14 743.53 -99.77 709.61 -49.36C693.75 -25.79 669.55 -6.30003 637.7 8.55997C612.24 20.44 581.87 29.4 547.41 35.2C489.59 44.94 439.37 42.4099 437.48 42.3C435.4 42.61 372.75 51.96 306.33 74.26C266.87 87.51 233.83 102.67 208.11 119.31C176.02 140.08 155.33 163.24 146.62 188.13C132.89 227.38 148.71 271.54 193.64 319.4C220.79 348.31 231.83 378.67 226.45 409.62C209.77 505.63 39.9499 592.5 -84.0401 655.93C-160.74 695.17 -221.33 726.16 -218.93 745.13C-218.11 751.61 -209.93 756.51 -193.92 760.11L-194.14 761.09Z" fill="#181818"/>
<path d="M-205.61 769.28C-221.73 765.94 -230.04 761.02 -231 754.22C-233.79 734.58 -172.16 702 -94.1299 660.75C31.7201 594.22 204.07 503.09 220.43 406.17C225.51 376.1 215.05 346.87 189.35 319.28C145.89 272.63 130.69 228.95 144.17 189.43C152.93 163.75 173.89 139.64 206.47 117.78C232.5 100.31 265.96 84.2201 305.93 69.9501C373.97 45.6601 438.16 34.94 438.8 34.83L438.85 34.8201H438.9C439.41 34.8401 490.25 36.5901 549.07 25.4401C603.3 15.1501 675.59 -8.52997 712.01 -62.92C746.05 -113.75 743.62 -182.64 704.79 -267.66L705.7 -268.08C744.68 -182.72 747.08 -113.51 712.84 -62.3699C696.66 -38.2099 672.18 -18.02 640.08 -2.34998C614.42 10.17 583.86 19.85 549.24 26.42C491.15 37.44 440.82 35.8801 438.92 35.8201C436.83 36.1701 373.42 46.9101 306.26 70.8901C266.37 85.1301 232.98 101.19 207.03 118.61C174.64 140.35 153.81 164.29 145.12 189.75C131.77 228.89 146.9 272.24 190.09 318.59C216.01 346.41 226.56 375.93 221.43 406.33C204.97 503.75 32.36 595 -93.6699 661.63C-171.35 702.7 -232.7 735.14 -230.01 754.08C-229.11 760.4 -221.06 765.06 -205.4 768.3L-205.61 769.28Z" fill="#181818"/>
<path d="M-217.2 777.72C-232.99 774.73 -241.17 770.06 -242.22 763.42C-245.31 743.82 -182.88 709.76 -103.85 666.64C24.0898 596.84 199.32 501.23 215.45 402.94C220.29 373.45 210.31 345.05 185.8 318.52C144.05 273.35 129.52 230.49 142.6 191.14C151.33 164.89 172.43 140 205.32 117.14C231.6 98.8799 265.42 81.8699 305.85 66.5899C374.67 40.5699 439.67 28.3999 440.31 28.2799L440.36 28.2699H440.41C440.92 28.2799 491.9 29.0299 551.02 16.5699C605.54 5.07996 678.32 -20.33 715.47 -76.09C749.82 -127.65 748.56 -196.39 711.73 -280.4L712.65 -280.8C749.63 -196.46 750.86 -127.4 716.31 -75.53C699.81 -50.7701 675.03 -29.86 642.66 -13.36C616.78 -0.180054 586.01 10.2299 551.22 17.5599C492.83 29.8699 442.35 29.3099 440.46 29.2799C438.35 29.6799 374.14 41.8499 306.2 67.5399C265.85 82.8 232.1 99.77 205.89 117.98C173.18 140.71 152.21 165.43 143.55 191.47C130.59 230.45 145.05 272.97 186.53 317.85C211.26 344.61 221.33 373.3 216.43 403.11C200.22 501.89 24.7499 597.62 -103.38 667.52C-182.07 710.45 -244.22 744.36 -241.24 763.26C-240.27 769.43 -232.35 773.84 -217.03 776.74L-217.2 777.72Z" fill="#181818"/>
<path d="M-228.95 786.42C-244.41 783.78 -252.48 779.34 -253.6 772.86C-256.98 753.33 -193.74 717.78 -113.68 672.77C16.43 599.63 194.62 499.45 210.53 399.83C215.15 370.94 205.64 343.36 182.26 317.85C142.19 274.13 128.31 232.12 141 192.98C149.69 166.17 170.94 140.47 204.16 116.62C230.7 97.5599 264.9 79.6199 305.82 63.2899C375.46 35.4999 441.31 21.8499 441.97 21.7099C442.58 21.6999 493.73 21.4399 553.19 7.64993C608.02 -5.07007 681.35 -32.23 719.25 -89.39C753.92 -141.67 753.82 -210.28 718.95 -293.29L719.87 -293.68C754.88 -210.33 754.96 -141.41 720.08 -88.83C703.25 -63.4601 678.16 -41.8101 645.49 -24.4701C619.38 -10.6201 588.39 0.519958 553.39 8.63995C493.82 22.46 442.58 22.7099 442.07 22.7099C441.51 22.8299 375.74 36.4699 306.18 64.2299C265.34 80.5299 231.21 98.4299 204.74 117.44C171.7 141.17 150.57 166.69 141.95 193.3C129.38 232.07 143.19 273.75 183 317.19C206.59 342.93 216.18 370.79 211.52 400C195.53 500.09 17.09 600.41 -113.19 673.65C-192.91 718.47 -255.88 753.87 -252.62 772.7C-251.58 778.71 -243.78 782.88 -228.79 785.44L-228.95 786.42Z" fill="#181818"/>
<path d="M-240.84 795.37C-255.99 793.06 -263.94 788.87 -265.13 782.55C-268.8 763.11 -204.72 726.04 -123.59 679.1C8.74985 602.54 189.99 497.69 205.7 396.8C210.1 368.52 201.04 341.76 178.78 317.24C140.36 274.94 127.11 233.78 139.39 194.9C148.04 167.52 169.45 141.02 203.01 116.15C229.83 96.28 264.42 77.39 305.85 60C376.35 30.4 443.1 15.23 443.77 15.08C444.38 15.06 495.72 13.78 555.56 -1.35999C610.74 -15.32 684.65 -44.27 723.34 -102.86C758.33 -155.85 759.37 -224.32 726.43 -306.38L727.36 -306.75C760.43 -224.37 759.36 -155.59 724.18 -102.31C707.01 -76.31 681.58 -53.91 648.6 -35.72C622.24 -21.18 591.01 -9.30002 555.79 -0.390015C495.84 14.78 444.41 16.06 443.89 16.07C443.32 16.21 376.65 31.37 306.23 60.93C264.88 78.29 230.36 97.14 203.61 116.96C170.22 141.7 148.94 168.03 140.35 195.2C128.18 233.72 141.36 274.55 179.52 316.56C202 341.31 211.14 368.35 206.69 396.94C190.9 498.32 9.41986 603.31 -123.09 679.96C-203.88 726.7 -267.69 763.61 -264.15 782.35C-263.06 788.12 -255.17 792.17 -240.69 794.37L-240.84 795.37Z" fill="#181818"/>
<path d="M-252.88 804.59C-267.74 802.6 -275.57 798.64 -276.83 792.48C-280.79 773.15 -215.84 734.53 -133.62 685.65C1.00998 605.61 185.4 495.98 200.91 393.87C205.11 366.22 196.49 340.26 175.29 316.7C138.48 275.8 125.84 235.5 137.72 196.92C146.33 168.97 167.9 141.67 201.82 115.77C228.92 95.07 263.94 75.21 305.9 56.74C377.31 25.3 445 8.56003 445.68 8.39001C446.29 8.35001 497.85 6.04001 558.1 -10.47C613.66 -25.69 688.18 -56.45 727.67 -116.49C762.98 -170.18 765.14 -238.53 734.1 -319.65L735.03 -320.01C766.19 -238.57 764 -169.92 728.5 -115.94C710.98 -89.3 685.2 -66.13 651.9 -47.08C625.27 -31.85 593.79 -19.21 558.34 -9.48999C497.99 7.04001 446.33 9.36002 445.82 9.38C445.24 9.53 377.63 26.25 306.29 57.66C264.41 76.1 229.46 95.92 202.42 116.57C168.67 142.34 147.22 169.48 138.67 197.22C126.9 235.44 139.46 275.41 176.03 316.03C197.44 339.82 206.14 366.06 201.89 394.02C186.32 496.6 1.69995 606.36 -133.1 686.51C-214.98 735.19 -279.66 773.64 -275.85 792.28C-274.7 797.9 -266.93 801.7 -252.75 803.6L-252.88 804.59Z" fill="#181818"/>
</g>
<g clip-path="url(#clip2_894_3894)">
<path d="M305.317 239.256C295.649 222.336 278.706 211.771 263.623 200.13C250.539 190.034 238.402 178.726 227.389 166.416C213.653 151.052 189.851 112.477 189.55 111.047C189.536 110.986 189.457 110.986 189.446 111.047C189.149 112.481 165.347 151.055 151.608 166.412C140.595 178.726 128.458 190.034 115.374 200.127C100.295 211.768 83.3515 222.336 73.683 239.256C65.1506 254.183 61.8178 272.219 65.4623 289.103C73.0452 324.237 110.827 352.279 146.727 341.608C156.309 338.761 165.347 334.144 173.65 328.625C174.198 328.261 176.155 327.127 178.23 325.8C170.74 343.296 156.288 360.902 147.752 368.942C145.437 371.123 146.996 375.004 150.181 375.004H156.969H189.497H222.025H228.812C231.994 375.004 233.553 371.123 231.242 368.942C222.706 360.898 208.328 343.417 200.885 325.879C202.914 327.173 204.806 328.271 205.343 328.629C213.646 334.147 222.688 338.764 232.266 341.611C268.174 352.276 305.955 324.234 313.538 289.103C317.183 272.219 313.85 254.183 305.317 239.256Z" fill="#ED2224"/>
</g>
<g clip-path="url(#clip3_894_3894)">
<path d="M49.9586 36.7966C48.9185 34.9765 47.096 33.8401 45.4735 32.5879C44.0661 31.5018 42.7604 30.2854 41.5759 28.9612C40.0983 27.3085 37.5379 23.159 37.5055 23.0051C37.504 22.9986 37.4955 22.9986 37.4944 23.0051C37.4624 23.1594 34.902 27.3089 33.424 28.9608C32.2395 30.2854 30.9338 31.5018 29.5264 32.5875C27.9043 33.8397 26.0817 34.9765 25.0417 36.7966C24.1239 38.4023 23.7654 40.3424 24.1574 42.1586C24.9731 45.938 29.0372 48.9545 32.899 47.8065C33.9298 47.5003 34.902 47.0036 35.7951 46.41C35.8541 46.3708 36.0646 46.2488 36.2878 46.1061C35.4821 47.9881 33.9275 49.882 33.0093 50.7469C32.7602 50.9815 32.9279 51.3989 33.2706 51.3989H34.0007H37.4998H40.9988H41.7289C42.0712 51.3989 42.2389 50.9815 41.9902 50.7469C41.072 49.8817 39.5255 48.0012 38.7248 46.1146C38.943 46.2539 39.1465 46.372 39.2044 46.4104C40.0975 47.004 41.0701 47.5007 42.1005 47.8069C45.963 48.9541 50.0272 45.9376 50.8429 42.1586C51.2349 40.3424 50.8764 38.4023 49.9586 36.7966Z" fill="#ED2224"/>
</g>
</g>
<rect x="1" y="1" width="368" height="483" rx="15" stroke="#ED2224"/>
<defs>
<clipPath id="clip0_894_3894">
<rect x="1" y="1" width="368" height="483" rx="15" fill="white"/>
</clipPath>
<clipPath id="clip1_894_3894">
<rect width="1033.89" height="1124.59" fill="white" transform="translate(-157 -320)"/>
</clipPath>
<clipPath id="clip2_894_3894">
<rect width="251" height="264" fill="white" transform="translate(64 111)"/>
</clipPath>
<clipPath id="clip3_894_3894">
<rect width="27" height="28.3984" fill="white" transform="translate(24 23)"/>
</clipPath>
</defs>
</svg>
