<svg width="370" height="485" viewBox="0 0 370 485" fill="none" xmlns="http://www.w3.org/2000/svg">
<g clip-path="url(#clip0_894_3910)">
<rect x="1" y="1" width="368" height="483" rx="15" fill="#030303"/>
<g clip-path="url(#clip1_894_3910)">
<path d="M55.56 630.06C26.13 613.1 13.42 601.23 15.58 592.69C19.35 577.77 69.16 576.4 132.22 574.65C180.87 573.31 236.01 571.78 281.97 563.69C335.06 554.34 365.38 537.97 374.66 513.63C380.78 497.57 377.54 477.65 365.02 454.43C351.22 428.83 325.7 398.39 289.19 363.94C191.3 271.6 150.95 209.11 169.26 178.22C177.21 164.8 196.29 157.38 225.96 156.16C249.59 155.18 279.99 158.12 316.31 164.87C378.12 176.36 436.47 195.2 437.05 195.38C437.68 195.67 494.76 222.48 556.44 242.04C592.65 253.52 623.34 260.29 647.65 262.17C677.91 264.5 698.26 259.22 708.14 246.46C732.64 214.85 694.25 137.61 594.03 16.87L594.8 16.23C695.36 137.38 733.76 215.04 708.93 247.07C698.83 260.11 678.18 265.52 647.57 263.16C623.18 261.28 592.42 254.49 556.13 242.99C494.38 223.41 437.25 196.58 436.68 196.31C436.16 196.14 377.86 177.32 316.12 165.85C234.58 150.7 184.1 155.15 170.12 178.73C152.08 209.17 192.37 271.24 289.88 363.22C326.48 397.74 352.06 428.27 365.91 453.97C378.57 477.46 381.83 497.65 375.6 514C366.18 538.69 335.62 555.27 282.15 564.69C236.11 572.8 180.93 574.32 132.25 575.66C72.09 577.32 20.14 578.76 16.55 592.94C14.55 600.87 27.47 612.73 56.06 629.2L55.56 630.06Z" fill="#181818"/>
<path d="M46.1399 632.8C17.3399 616.51 4.87994 604.92 6.91994 596.32C10.5399 581.1 60.4799 578.72 123.7 575.71C172.57 573.38 227.97 570.75 274.15 561.59C327.51 551.01 357.95 533.71 367.22 508.71C373.23 492.49 370.14 472.65 358.01 449.73C344.66 424.5 319.94 394.73 284.54 361.24C189.06 270.91 149.96 209.16 168.33 177.7C176.36 163.94 195.45 156.01 225.06 154.12C248.65 152.62 278.95 154.92 315.15 160.97C376.74 171.26 434.82 189.06 435.4 189.24C436.02 189.52 492.52 215.31 553.74 233.71C610.12 250.65 682.12 264.62 705 234.96C729.89 202.7 693.09 126.02 595.61 7.06995L596.38 6.43994C694.19 125.8 731 202.9 705.79 235.58C695.5 248.91 674.82 254.79 644.33 253.06C620.03 251.68 589.46 245.49 553.45 234.67C492.17 216.26 435.61 190.44 435.05 190.18C434.53 190.02 376.51 172.24 314.98 161.96C233.74 148.39 183.33 154.01 169.2 178.21C151.1 209.21 190.14 270.55 285.24 360.51C320.72 394.07 345.5 423.93 358.91 449.26C371.17 472.43 374.29 492.55 368.17 509.05C358.77 534.4 328.08 551.91 274.36 562.56C228.1 571.73 172.67 574.37 123.76 576.7C63.4399 579.57 11.3499 582.05 7.89992 596.54C5.99992 604.52 18.6699 616.09 46.6399 631.91L46.1399 632.8Z" fill="#181818"/>
<path d="M36.6899 635.74C8.50993 620.1 -3.72009 608.79 -1.79009 600.15C1.66991 584.63 51.7599 581.24 115.18 576.95C164.31 573.62 219.99 569.86 266.41 559.62C320.06 547.79 350.64 529.56 359.89 503.88C365.79 487.51 362.82 467.75 351.08 445.15C338.17 420.3 314.24 391.2 279.94 358.66C186.85 270.33 148.98 209.3 167.38 177.28C175.49 163.17 194.59 154.72 224.16 152.16C247.71 150.13 277.95 151.8 314.03 157.14C375.43 166.22 433.28 183 433.86 183.17C434.48 183.44 490.43 208.23 551.2 225.46C607.17 241.33 678.77 253.88 702.07 223.54C727.35 190.61 692.12 114.48 597.34 -2.72989L598.12 -3.35986C693.22 114.26 728.46 190.8 702.86 224.15C692.39 237.79 671.68 244.14 641.28 243.03C617.06 242.15 586.66 236.56 550.91 226.42C490.07 209.16 434.07 184.36 433.51 184.11C433 183.96 375.21 167.2 313.87 158.13C232.87 146.15 182.51 152.94 168.25 177.78C150.11 209.35 187.92 269.96 280.63 357.94C315 390.56 339 419.75 351.97 444.7C363.85 467.56 366.83 487.59 360.83 504.23C351.45 530.26 320.64 548.7 266.62 560.61C220.12 570.86 164.4 574.63 115.24 577.96C54.7299 582.05 2.47992 585.59 -0.820085 600.38C-2.61008 608.41 9.80994 619.69 37.1699 634.87L36.6899 635.74Z" fill="#181818"/>
<path d="M27.19 638.87C-3.24249e-05 624.08 -12.35 612.73 -10.57 604.17C-7.28004 588.35 43 583.94 106.65 578.35C156.06 574.01 212.06 569.1 258.76 557.76C312.74 544.66 343.46 525.47 352.69 499.1C358.46 482.6 355.63 462.93 344.26 440.64C331.78 416.16 308.61 387.73 275.41 356.12C184.68 269.75 148.01 209.44 166.43 176.86C174.61 162.39 193.74 153.41 223.27 150.18C246.8 147.61 276.98 148.65 312.97 153.28C374.22 161.15 431.87 176.91 432.45 177.07C433.07 177.33 488.49 201.12 548.84 217.2C604.42 232.01 675.66 243.14 699.4 212.08C725.08 178.47 691.4 102.86 599.3 -12.64L600.08 -13.26C692.5 102.65 726.19 178.68 700.2 212.7C689.54 226.65 668.79 233.49 638.48 233C614.33 232.62 584.09 227.63 548.58 218.17C488.16 202.07 432.68 178.26 432.12 178.02C431.61 177.89 374.02 162.15 312.84 154.28C256.5 147.04 185.52 145.16 167.31 177.36C149.14 209.49 185.75 269.39 276.11 355.4C309.39 387.08 332.63 415.61 345.16 440.19C356.66 462.73 359.51 482.67 353.64 499.44C344.29 526.15 313.34 545.55 259 558.74C212.23 570.09 156.18 575.02 106.74 579.36C46 584.69 -6.45003 589.3 -9.59003 604.39C-11.27 612.46 0.919979 623.45 27.67 638L27.19 638.87Z" fill="#181818"/>
<path d="M17.66 642.21C-8.93998 628.04 -21.06 616.99 -19.4 608.4C-16.29 592.29 34.2 586.84 98.11 579.94C147.84 574.57 204.19 568.49 251.19 556.03C305.53 541.63 336.41 521.47 345.61 494.4C351.25 477.78 348.54 458.22 337.54 436.24C325.48 412.14 303.07 384.37 270.94 353.69C182.54 269.27 147.06 209.66 165.48 176.53C173.73 161.68 192.88 152.17 222.4 148.26C245.92 145.14 276.05 145.55 311.98 149.46C373.11 156.12 430.6 170.85 431.18 171C431.8 171.25 486.72 194.05 546.68 208.98C601.91 222.73 672.81 232.45 696.98 200.65C723.05 166.35 690.91 91.24 601.44 -22.6L602.23 -23.22C692.01 91.03 724.16 166.55 697.78 201.25C686.93 215.52 666.11 222.83 635.89 222.99C611.76 223.15 581.7 218.73 546.42 209.94C486.38 194.99 431.4 172.17 430.85 171.94C430.34 171.82 372.91 157.1 311.85 150.45C255.61 144.32 184.73 143.96 166.35 177.01C148.18 209.69 183.6 268.89 271.63 352.96C303.84 383.72 326.31 411.58 338.43 435.78C349.56 458 352.29 477.83 346.56 494.71C337.25 522.12 306.14 542.49 251.45 556.98C204.38 569.46 147.98 575.54 98.22 580.92C37.23 587.5 -15.44 593.19 -18.41 608.58C-19.98 616.67 -8.01997 627.38 18.14 641.31L17.66 642.21Z" fill="#181818"/>
<path d="M8.08002 645.73C-17.93 632.18 -29.82 621.41 -28.29 612.81C-25.37 596.41 25.35 589.91 89.56 581.68C139.63 575.27 196.39 567.99 243.71 554.4C298.44 538.68 329.5 517.53 338.65 489.75C344.16 473.03 341.56 453.58 330.91 431.92C319.25 408.21 297.59 381.09 266.53 351.32C180.44 268.82 146.11 209.92 164.52 176.24C172.84 161.01 192.02 150.95 221.52 146.35C245.03 142.68 275.14 142.44 311.02 145.64C372.07 151.08 429.43 164.78 430.01 164.92C430.62 165.16 485.08 186.97 544.68 200.76C579.67 208.85 609.56 212.64 633.5 212C663.33 211.21 683.96 203.54 694.8 189.2C721.26 154.2 690.64 79.56 603.77 -32.65L604.56 -33.26C691.73 79.36 722.36 154.41 695.59 189.81C684.55 204.41 663.66 212.21 633.51 213.01C609.47 213.64 579.5 209.85 544.43 201.74C484.75 187.94 430.24 166.1 429.69 165.88C429.19 165.76 371.88 152.08 310.91 146.65C254.76 141.65 183.92 142.81 165.38 176.73C147.22 209.96 181.48 268.46 267.21 350.61C298.36 380.46 320.09 407.67 331.8 431.49C342.56 453.39 345.18 473.1 339.59 490.07C330.32 518.19 299.05 539.55 243.97 555.37C196.57 568.99 139.77 576.26 89.6701 582.68C28.3901 590.53 -24.53 597.31 -27.32 612.99C-28.77 621.1 -17.04 631.52 8.53003 644.84L8.08002 645.73Z" fill="#181818"/>
<path d="M-1.54995 649.47C-26.9799 636.52 -38.66 626.05 -37.25 617.44C-34.53 600.75 16.45 593.19 81 583.62C131.45 576.14 188.63 567.66 236.31 552.9C291.47 535.83 322.7 513.68 331.81 485.18C337.18 468.38 334.68 449.04 324.39 427.71C313.13 404.39 292.2 377.92 262.18 349.05C178.37 268.45 145.18 210.24 163.55 176.02C171.94 160.4 191.15 149.78 220.66 144.48C244.18 140.25 274.28 139.37 310.13 141.84C371.13 146.05 428.41 158.72 428.98 158.85C429.59 159.08 483.6 179.92 542.86 192.56C577.65 199.98 607.4 203.16 631.32 202.02C661.11 200.6 681.81 192.43 692.86 177.75C719.72 142.05 690.59 67.8501 606.3 -42.7699L607.09 -43.3799C691.69 67.6401 720.82 142.24 693.66 178.35C682.42 193.29 661.47 201.59 631.37 203.02C607.37 204.16 577.52 200.97 542.65 193.53C483.31 180.87 429.24 160.01 428.7 159.8C428.2 159.69 370.98 147.04 310.06 142.83C253.95 138.96 183.14 141.65 164.44 176.48C146.31 210.25 179.43 268.07 262.88 348.32C292.99 377.28 313.99 403.84 325.3 427.27C335.71 448.84 338.22 468.42 332.78 485.48C323.57 514.32 292.11 536.68 236.62 553.85C188.87 568.63 131.64 577.11 81.16 584.6C17.02 594.11 -33.64 601.62 -36.25 617.59C-37.58 625.71 -26.0699 635.84 -1.07995 648.57L-1.54995 649.47Z" fill="#181818"/>
<path d="M-11.2401 653.4C-36.1001 641.05 -47.5701 630.86 -46.2901 622.26C-43.7801 605.29 7.48993 596.66 72.3999 585.73C123.26 577.16 180.91 567.45 228.97 551.52C284.58 533.08 316.02 509.91 325.07 480.67C330.29 463.8 327.9 444.6 317.94 423.6C307.07 400.67 286.86 374.85 257.86 346.86C176.3 268.14 144.23 210.62 162.54 175.87C170.99 159.84 190.25 148.66 219.77 142.65C243.31 137.86 273.42 136.32 309.25 138.06C370.23 141.03 427.46 152.67 428.04 152.79C428.65 153.01 482.24 172.88 541.2 184.38C575.81 191.13 605.46 193.71 629.35 192.06C659.1 190 679.9 181.33 691.15 166.29C718.4 129.87 690.76 56.0999 609.01 -52.9601L609.81 -53.5601C691.86 55.8999 719.5 130.07 691.95 166.89C680.51 182.18 659.47 190.98 629.41 193.06C605.44 194.72 575.69 192.13 541 185.36C481.96 173.85 428.31 153.95 427.77 153.75C427.27 153.65 370.11 142.03 309.2 139.06C253.1 136.33 182.27 140.58 163.43 176.33C145.35 210.63 177.36 267.76 258.56 346.13C287.65 374.2 307.93 400.12 318.85 423.16C328.91 444.4 331.33 463.84 326.03 480.95C316.87 510.51 285.23 533.9 229.29 552.45C181.15 568.41 123.47 578.13 72.5699 586.7C8.05994 597.57 -42.8901 606.15 -45.3001 622.39C-46.5001 630.51 -35.2201 640.35 -10.7901 652.49L-11.2401 653.4Z" fill="#181818"/>
<path d="M-20.98 657.54C-45.28 645.77 -56.54 635.87 -55.39 627.29C-53.1 610.06 -1.50998 600.33 63.79 588.02C115.09 578.35 173.24 567.38 221.71 550.24C277.81 530.4 309.46 506.19 318.45 476.22C323.53 459.3 321.22 440.25 311.6 419.58C301.11 397.05 281.6 371.87 253.61 344.76C174.28 267.9 143.31 211.06 161.54 175.8C170.05 159.35 189.35 147.6 218.91 140.87C242.48 135.51 272.61 133.3 308.46 134.31C369.46 136.03 426.69 146.63 427.26 146.74C427.87 146.95 481.06 165.86 539.74 176.21C574.19 182.29 603.75 184.27 627.61 182.1C657.35 179.4 678.23 170.22 689.7 154.82C717.34 117.67 691.17 44.3099 611.92 -63.2301L612.72 -63.8201C692.26 44.1199 718.43 117.88 690.49 155.42C678.85 171.06 657.72 180.38 627.69 183.1C603.73 185.27 574.08 183.28 539.55 177.19C480.78 166.82 427.52 147.89 426.99 147.7C426.5 147.61 369.34 137.03 308.41 135.31C272.64 134.3 242.61 136.5 219.12 141.84C189.86 148.5 170.79 160.07 162.42 176.25C144.41 211.07 175.32 267.52 254.3 344.03C282.38 371.24 301.96 396.51 312.5 419.15C322.23 440.05 324.55 459.34 319.4 476.5C310.31 506.8 278.46 531.23 222.03 551.18C173.48 568.35 115.3 579.32 63.96 589C-0.949997 601.24 -52.22 610.91 -54.42 627.42C-55.5 635.53 -44.42 645.09 -20.56 656.64L-20.98 657.54Z" fill="#181818"/>
<path d="M-30.7701 661.88C-54.5201 650.68 -65.5801 641.07 -64.5701 632.51C-62.5101 615.01 -10.5801 604.18 55.1499 590.47C106.92 579.67 165.61 567.43 214.52 549.06C271.14 527.8 303.01 502.53 311.94 471.81C316.87 454.86 314.65 435.96 305.36 415.63C295.24 393.5 276.42 368.97 249.42 342.7C172.3 267.68 142.39 211.52 160.53 175.77C169.09 158.89 188.44 146.56 218.05 139.1C241.66 133.16 271.82 130.27 307.71 130.55C368.77 131.01 426.02 140.57 426.59 140.66C427.2 140.86 480.02 158.81 538.46 168.02C572.76 173.43 602.25 174.8 626.1 172.12C655.83 168.78 676.83 159.08 688.5 143.3C716.53 105.42 691.81 32.44 615.04 -73.61L615.85 -74.2C692.9 32.25 717.62 105.63 689.3 143.9C677.45 159.91 656.22 169.74 626.2 173.12C602.25 175.81 572.68 174.43 538.29 169.01C479.77 159.79 426.87 141.81 426.34 141.63C425.85 141.55 368.67 132.01 307.68 131.55C271.91 131.28 241.81 134.15 218.28 140.07C188.97 147.45 169.84 159.61 161.41 176.22C143.49 211.53 173.34 267.3 250.11 341.98C277.2 368.33 296.09 392.97 306.26 415.21C315.66 435.77 317.89 454.9 312.89 472.08C303.87 503.12 271.8 528.61 214.86 549.99C165.88 568.39 107.15 580.64 55.3399 591.45C-10.0001 605.08 -61.6101 615.85 -63.5901 632.63C-64.5401 640.71 -53.6701 649.99 -30.3601 660.98L-30.7701 661.88Z" fill="#181818"/>
<path d="M-40.6401 666.43C-63.8501 655.79 -74.7101 646.47 -73.8301 637.94C-72.0001 620.19 -19.7101 608.24 46.4899 593.1C98.7699 581.15 158.03 567.6 207.4 547.98C264.58 525.26 296.68 498.92 305.54 467.45C310.31 450.5 308.18 431.76 299.2 411.78C289.44 390.06 271.3 366.16 245.27 340.73C170.33 267.54 141.47 212.05 159.49 175.83C168.1 158.51 187.51 145.58 217.18 137.39C240.84 130.86 271.06 127.3 307 126.82C368.15 126.01 425.47 134.51 426.05 134.6C426.65 134.79 479.14 151.79 537.36 159.85C571.53 164.58 600.95 165.36 624.81 162.15C654.55 158.15 675.66 147.93 687.55 131.77C715.96 93.1501 692.68 20.5301 618.37 -84.0699L619.18 -84.6499C693.78 20.3301 717.05 93.3501 688.35 132.36C676.29 148.75 654.95 159.11 624.93 163.14C600.98 166.36 571.46 165.58 537.2 160.83C478.9 152.75 426.34 135.73 425.81 135.56C425.32 135.49 368.07 126.99 307 127.81C271.15 128.29 241.02 131.83 217.44 138.34C188.06 146.45 168.87 159.21 160.39 176.26C142.59 212.06 171.38 267.15 245.97 340C272.09 365.51 290.3 389.52 300.11 411.35C309.19 431.56 311.34 450.52 306.5 467.71C297.55 499.5 265.26 526.06 207.77 548.9C158.32 568.55 99.0299 582.11 46.7099 594.07C-19.1001 609.12 -71.0801 621 -72.8401 638.04C-73.6701 646.09 -63.0001 655.08 -40.2301 665.52L-40.6401 666.43Z" fill="#181818"/>
<path d="M-50.57 671.19C-73.25 661.1 -83.92 652.07 -83.17 643.58C-81.59 625.59 -28.91 612.49 37.79 595.91C90.61 582.78 150.47 567.9 200.34 547C258.1 522.8 290.45 495.37 299.23 463.14C303.85 446.19 301.79 427.64 293.13 408C283.73 386.69 266.25 363.42 241.17 338.82C168.39 267.43 140.56 212.63 158.43 175.94C167.09 158.17 186.56 144.63 216.3 135.69C240.02 128.56 270.31 124.32 306.33 123.08C367.61 120.98 425.04 128.42 425.62 128.5C426.22 128.68 478.4 144.73 536.42 151.65C570.47 155.71 599.85 155.88 623.72 152.14C653.48 147.49 674.72 136.73 686.83 120.17C715.62 80.79 693.77 8.52003 621.87 -94.65L622.69 -95.22C694.86 8.34003 716.71 81 687.64 120.76C675.37 137.54 653.91 148.43 623.87 153.13C599.9 156.88 570.44 156.71 536.29 152.64C478.18 145.71 425.93 129.64 425.41 129.47C424.92 129.41 367.56 121.98 306.36 124.08C270.43 125.31 240.23 129.54 216.59 136.65C187.13 145.51 167.87 158.88 159.34 176.38C141.67 212.64 169.45 267.05 241.88 338.11C267.04 362.8 284.6 386.17 294.05 407.6C302.81 427.46 304.88 446.23 300.2 463.4C291.33 495.94 258.79 523.59 200.73 547.91C150.79 568.83 90.89 583.73 38.04 596.86C-28.27 613.34 -80.65 626.36 -82.17 643.64C-82.87 651.65 -72.4 660.35 -50.16 670.25L-50.57 671.19Z" fill="#181818"/>
<path d="M-60.58 676.16C-82.74 666.61 -93.22 657.86 -92.61 649.43C-91.29 631.21 -38.18 616.96 29.05 598.91C82.43 584.58 142.94 568.34 193.34 546.14C251.72 520.42 284.34 491.89 293.03 458.91C302.31 423.73 283.5 382.72 237.12 337.02C166.48 267.41 139.64 213.3 157.35 176.17C166.05 157.94 185.58 143.77 215.41 134.07C239.2 126.33 269.58 121.39 305.7 119.39C367.16 115.98 424.73 122.36 425.31 122.42C425.91 122.59 477.8 137.69 535.66 143.46C569.62 146.85 598.96 146.4 622.86 142.14C652.66 136.82 674.03 125.52 686.36 108.55C715.53 68.4199 695.08 -3.53011 625.58 -105.3L626.41 -105.86C696.18 -3.7001 716.62 68.6299 687.18 109.14C674.69 126.33 653.11 137.76 623.04 143.12C599.05 147.4 569.62 147.85 535.56 144.45C477.61 138.67 425.64 123.54 425.12 123.39C424.63 123.34 367.13 116.98 305.75 120.38C269.72 122.38 239.43 127.3 215.72 135.02C186.17 144.63 166.83 158.62 158.26 176.6C140.75 213.3 167.52 267.03 237.82 336.3C262.05 360.18 278.96 382.93 288.07 403.94C296.53 423.44 298.52 442.02 294 459.15C285.22 492.44 252.42 521.19 193.74 547.04C143.28 569.27 82.73 585.52 29.31 599.86C-37.54 617.8 -90.34 631.98 -91.61 649.48C-92.19 657.43 -81.91 665.85 -60.18 675.21L-60.58 676.16Z" fill="#181818"/>
<path d="M-70.66 681.35C-92.31 672.32 -102.61 663.86 -102.13 655.5C-101.07 637.07 -47.52 621.64 20.27 602.1C74.25 586.54 135.44 568.91 186.38 545.39C245.42 518.13 278.3 488.48 286.91 454.74C295.86 419.69 277.75 379.5 233.09 335.29C164.56 267.45 138.7 214.02 156.23 176.49C164.97 157.78 184.57 142.98 214.5 132.51C238.38 124.15 268.86 118.5 305.1 115.72C366.77 110.99 424.53 116.28 425.11 116.33C425.71 116.49 477.35 130.65 535.07 135.27C568.95 137.98 598.27 136.92 622.21 132.12C652.06 126.13 673.57 114.28 686.13 96.89C715.68 56 696.62 -15.64 629.48 -116.05L630.31 -116.61C697.71 -15.82 716.76 56.2 686.94 97.47C674.22 115.07 652.51 127.05 622.4 133.09C598.37 137.91 568.95 138.97 534.98 136.26C477.16 131.63 425.45 117.45 424.93 117.3C424.44 117.26 366.75 111.98 305.17 116.71C269.02 119.49 238.63 125.12 214.83 133.45C185.17 143.83 165.76 158.46 157.14 176.91C139.81 214.02 165.6 267.07 233.8 334.58C257.12 357.66 273.39 379.8 282.16 400.4C290.32 419.54 292.24 437.9 287.88 454.99C279.19 489.04 246.13 518.91 186.8 546.3C135.79 569.85 74.56 587.5 20.54 603.06C-46.87 622.49 -100.12 637.83 -101.14 655.56C-101.59 663.45 -91.5 671.58 -70.29 680.43L-70.66 681.35Z" fill="#181818"/>
<path d="M-80.83 686.75C-101.99 678.23 -112.1 670.06 -111.75 661.77C-110.96 643.14 -56.95 626.51 11.45 605.46C66.07 588.65 127.97 569.6 179.49 544.73C239.22 515.9 272.39 485.11 280.91 450.62C289.52 415.74 272.1 376.38 229.13 333.63C162.69 267.54 137.79 214.8 155.11 176.89C163.88 157.7 183.56 142.25 213.6 130.99C237.57 122 268.18 115.63 304.56 112.06C366.47 105.98 424.47 110.17 425.05 110.22C425.65 110.37 477.06 123.59 534.68 127.05C568.5 129.08 597.82 127.4 621.8 122.05C651.72 115.38 673.38 102.97 686.18 85.15C716.1 43.49 698.41 -27.86 633.61 -126.93L634.45 -127.48C699.5 -28.03 717.18 43.7 687 85.73C674.05 103.76 652.19 116.3 622.02 123.02C597.94 128.39 568.53 130.07 534.61 128.04C476.89 124.57 425.4 111.33 424.89 111.19C424.4 111.16 366.48 106.98 304.65 113.05C268.36 116.62 237.84 122.96 213.95 131.92C184.17 143.09 164.68 158.36 156.02 177.3C138.89 214.8 163.73 267.15 229.84 332.92C273.08 375.93 290.59 415.61 281.88 450.86C273.29 485.66 239.94 516.66 179.92 545.63C128.33 570.54 66.39 589.6 11.74 606.42C-56.27 627.35 -110 643.89 -110.75 661.81C-111.08 669.62 -101.17 677.48 -80.45 685.82L-80.83 686.75Z" fill="#181818"/>
<path d="M-91.0701 692.37C-111.74 684.35 -121.68 676.46 -121.46 668.26C-120.95 649.44 -66.43 631.6 2.58995 609.01C57.8699 590.92 120.52 570.42 172.66 544.17C233.11 513.73 266.59 481.8 275.01 446.55C283.29 411.88 266.54 373.35 225.22 332.04C160.84 267.68 136.87 215.64 153.96 177.37C162.76 157.68 182.52 141.58 212.69 129.52C236.77 119.89 267.51 112.79 304.06 108.42C366.26 100.98 424.53 104.06 425.11 104.09C425.71 104.23 476.91 116.51 534.47 118.81C568.25 120.16 597.57 117.85 621.62 111.96C651.62 104.61 673.44 91.6199 686.48 73.3599C716.77 30.9299 700.44 -40.1501 637.95 -137.9L638.79 -138.44C701.53 -40.3101 717.84 31.1499 687.29 73.9399C674.11 92.3999 652.09 105.52 621.85 112.94C597.71 118.86 568.29 121.17 534.41 119.82C476.76 117.52 425.48 105.21 424.96 105.09C424.47 105.07 366.28 102 304.16 109.43C267.7 113.8 237.04 120.87 213.05 130.47C183.13 142.43 163.55 158.36 154.87 177.8C137.96 215.65 161.87 267.31 225.92 331.35C267.5 372.92 284.34 411.77 275.97 446.8C267.48 482.35 233.83 514.5 173.1 545.08C120.9 571.36 58.2099 591.88 2.89995 609.98C-65.7501 632.44 -119.97 650.19 -120.46 668.3C-120.67 676.03 -110.94 683.6 -90.7101 691.45L-91.0701 692.37Z" fill="#181818"/>
<path d="M-101.41 698.21C-121.61 690.68 -131.38 683.07 -131.28 674.96C-131.06 655.97 -76.02 636.9 -6.34 612.75C49.64 593.35 113.08 571.36 165.85 543.71C227.05 511.64 260.85 478.54 269.17 442.54C277.13 408.12 261.03 370.43 221.32 330.53C158.98 267.88 135.92 216.55 152.76 177.96C161.58 157.77 181.42 141 211.74 128.12C235.94 117.84 266.84 110 303.58 104.81C366.11 95.9799 424.69 97.93 425.28 97.95C425.88 98.08 476.91 109.42 534.42 110.55C568.17 111.21 597.52 108.27 621.65 101.82C651.75 93.77 673.74 80.2 687.02 61.48C717.67 18.28 702.69 -52.54 642.48 -149.02L643.33 -149.55C703.77 -52.7001 718.75 18.4899 687.84 62.0499C674.42 80.9599 652.24 94.67 621.91 102.78C597.69 109.26 568.26 112.2 534.4 111.54C476.79 110.41 425.68 99.0499 425.17 98.9299C424.68 98.92 366.17 96.9699 303.73 105.8C267.08 110.98 236.27 118.8 212.15 129.04C182.08 141.82 162.41 158.41 153.7 178.36C137.03 216.53 160.03 267.49 222.05 329.82C262.01 369.99 278.2 407.99 270.16 442.76C261.77 479.06 227.81 512.37 166.33 544.59C113.49 572.28 50.01 594.28 -6 613.69C-75.31 637.71 -130.06 656.68 -130.27 674.97C-130.36 682.61 -120.8 689.9 -101.05 697.27L-101.41 698.21Z" fill="#181818"/>
<path d="M-111.84 704.27C-131.57 697.21 -141.18 689.89 -141.21 681.88C-141.28 662.74 -85.69 642.41 -15.31 616.67C41.39 595.93 105.66 572.43 159.1 543.34C221.09 509.6 255.23 475.33 263.44 438.59C271.07 404.46 255.61 367.61 217.48 329.08C157.16 268.12 134.98 217.5 151.56 178.63C160.39 157.92 180.33 140.47 210.81 126.76C235.14 115.82 266.21 107.22 303.17 101.2C366.07 90.95 425.01 91.76 425.6 91.76C426.2 91.88 476.84 102.23 534.17 102.23C534.31 102.23 534.45 102.23 534.59 102.23C587.58 102.18 657.18 93 687.85 49.51C718.86 5.52998 705.2 -65.04 647.25 -160.26L648.1 -160.78C706.28 -65.19 719.92 5.74995 688.66 50.08C674.99 69.46 652.63 83.75 622.2 92.57C597.9 99.61 568.41 103.2 534.57 103.22C534.44 103.22 534.3 103.22 534.17 103.22C476.74 103.22 426 92.85 425.5 92.74C424.94 92.74 366.1 91.95 303.33 102.18C266.46 108.19 235.48 116.76 211.23 127.67C180.99 141.27 161.23 158.55 152.5 179.02C136.09 217.48 158.2 267.73 218.21 328.37C256.59 367.16 272.15 404.31 264.43 438.8C256.14 475.84 221.85 510.33 159.59 544.22C106.09 573.34 41.78 596.86 -14.95 617.6C-84.96 643.2 -140.26 663.43 -140.19 681.86C-140.16 689.39 -130.77 696.41 -111.48 703.31L-111.84 704.27Z" fill="#181818"/>
<path d="M-122.37 710.55C-141.65 703.96 -151.1 696.91 -151.25 689.02C-151.61 669.75 -95.45 648.14 -24.35 620.79C86.99 577.96 239.48 519.3 257.78 434.71C265.1 400.9 250.25 364.9 213.66 327.71C155.32 268.42 134.01 218.53 150.3 179.42C159.15 158.18 179.17 140.04 209.82 125.49C234.29 113.87 265.55 104.5 302.75 97.64C366.05 85.96 425.4 85.58 425.99 85.58C426.59 85.68 477.36 95.15 534.87 93.91C587.88 92.77 657.63 82.06 688.87 37.47C720.23 -7.28 707.88 -77.63 652.17 -171.61L653.03 -172.12C708.97 -77.77 721.3 -7.06 689.69 38.04C675.77 57.9 653.23 72.8 622.67 82.33C598.27 89.94 568.73 94.17 534.87 94.9C477.25 96.14 426.4 86.66 425.89 86.56C425.39 86.57 366.12 86.94 302.91 98.61C265.8 105.46 234.62 114.8 210.24 126.38C179.82 140.82 159.96 158.79 151.22 179.79C135.1 218.5 156.34 268.02 214.37 327C251.21 364.44 266.15 400.75 258.75 434.91C250.57 472.69 215.93 508.36 152.85 543.95C98.65 574.53 33.49 599.6 -24 621.71C-94.73 648.92 -150.61 670.41 -150.25 688.99C-150.11 696.41 -140.89 703.16 -122.05 709.6L-122.37 710.55Z" fill="#181818"/>
<path d="M-133 717.07C-151.84 710.92 -161.13 704.15 -161.4 696.38C-162.06 676.99 -105.3 654.09 -33.4401 625.09C79.4899 579.52 234.16 517.12 252.22 430.88C259.23 397.43 244.98 362.28 209.89 326.41C153.52 268.78 133.04 219.62 149.03 180.3C157.88 158.53 178.01 139.68 208.85 124.26C233.47 111.96 264.95 101.8 302.4 94.07C366.15 80.92 425.94 79.35 426.54 79.34C427.14 79.43 477.82 87.95 535.38 85.52C588.44 83.28 658.37 71.02 690.2 25.32C721.91 -20.2 710.86 -90.33 657.35 -183.11L658.22 -183.61C711.94 -90.46 722.98 -19.98 691.03 25.89C676.86 46.23 654.11 61.75 623.42 72.01C598.91 80.21 569.3 85.09 535.41 86.52C477.74 88.95 426.97 80.42 426.47 80.33C425.97 80.35 366.25 81.92 302.59 95.05C265.22 102.76 233.83 112.89 209.29 125.15C178.68 140.45 158.72 159.13 149.96 180.67C134.13 219.59 154.54 268.38 210.61 325.71C245.95 361.84 260.28 397.29 253.2 431.09C245.14 469.6 210.14 506.46 146.2 543.79C91.28 575.85 25.2199 602.51 -33.0601 626.02C-104.56 654.87 -161.03 677.65 -160.39 696.35C-160.14 703.66 -151.08 710.13 -132.68 716.13L-133 717.07Z" fill="#181818"/>
<path d="M-143.73 723.81C-162.15 718.1 -171.28 711.61 -171.66 703.95C-172.62 684.46 -115.24 660.25 -42.6 629.59C71.99 581.23 228.92 515 246.74 427.14C253.44 394.09 239.79 359.78 206.16 325.19C151.72 269.19 132.06 220.77 147.73 181.29C156.59 158.98 176.82 139.41 207.86 123.12C232.64 110.12 264.35 99.16 302.09 90.55C366.32 75.9 426.61 73.12 427.22 73.09C427.82 73.17 478.43 80.7401 536.09 77.1C589.23 73.75 659.38 59.92 691.82 13.07C723.88 -33.23 714.1 -103.15 662.77 -194.74L663.64 -195.23C715.18 -103.27 724.93 -33 692.64 13.64C678.2 34.4901 655.25 50.64 624.41 61.64C599.77 70.4301 570.07 75.97 536.14 78.11C478.38 81.75 427.68 74.17 427.17 74.09C426.67 74.12 366.45 76.9 302.31 91.53C264.65 100.12 233.04 111.04 208.33 124.01C177.51 140.18 157.44 159.58 148.67 181.66C133.16 220.75 152.74 268.8 206.88 324.49C240.76 359.34 254.5 393.94 247.73 427.34C239.78 466.56 204.4 504.63 139.58 543.72C83.91 577.3 16.91 605.57 -42.19 630.51C-114.48 661.02 -171.57 685.12 -170.64 703.9C-170.29 711.08 -161.38 717.28 -143.41 722.85L-143.73 723.81Z" fill="#181818"/>
<path d="M-154.58 730.79C-172.58 725.51 -181.57 719.28 -182.06 711.76C-183.33 692.2 -125.3 666.64 -51.83 634.28C64.47 583.06 223.76 512.9 241.33 423.44C247.74 390.81 234.65 357.36 202.44 324.02C149.91 269.64 131.05 221.98 146.38 182.37C155.23 159.51 175.57 139.21 206.83 122.03C231.79 108.31 263.74 96.54 301.79 87.04C366.55 70.87 427.38 66.84 427.99 66.8C428.59 66.87 479.17 73.49 536.94 68.63C590.19 64.15 660.59 48.74 693.65 0.709991C726.05 -46.36 717.54 -116.08 668.36 -206.52L669.24 -207C718.62 -116.2 727.11 -46.13 694.48 1.28C679.77 22.65 656.59 39.43 625.59 51.18C600.82 60.56 571.02 66.77 537.01 69.63C479.14 74.49 428.47 67.86 427.96 67.79C427.45 67.83 366.7 71.86 302.03 88.01C264.06 97.49 232.2 109.23 207.31 122.9C176.27 139.96 156.08 160.09 147.32 182.72C132.14 221.93 150.93 269.23 203.17 323.31C235.62 356.9 248.79 390.65 242.32 423.62C234.48 463.54 198.71 502.83 132.96 543.72C76.5 578.84 8.53999 608.77 -51.41 635.17C-124.52 667.37 -182.27 692.8 -181.04 711.67C-180.58 718.72 -171.83 724.65 -154.28 729.8L-154.58 730.79Z" fill="#181818"/>
<path d="M-165.53 738.01C-183.13 733.14 -191.97 727.18 -192.57 719.8C-194.14 700.18 -135.44 673.26 -61.1201 639.18C56.9599 585.02 218.68 510.86 236 419.83C242.12 387.66 229.59 355.06 198.77 322.93C148.11 270.14 130.02 223.25 145.01 183.57C153.85 160.15 174.3 139.11 205.8 121.03C230.95 106.59 263.17 93.99 301.55 83.57C366.88 65.84 428.29 60.5399 428.91 60.49C429.51 60.55 480.09 66.21 538 60.12C591.38 54.51 662.09 37.49 695.78 -11.75C728.51 -59.58 721.25 -129.12 674.19 -218.43L675.07 -218.9C722.32 -129.24 729.56 -59.36 696.6 -11.19C681.62 10.71 658.2 28.15 627.01 40.66C602.09 50.65 572.17 57.54 538.08 61.12C480.07 67.22 429.39 61.54 428.89 61.48C428.38 61.53 367.04 66.83 301.8 84.54C263.5 94.93 231.36 107.5 206.29 121.9C175.01 139.86 154.7 160.73 145.95 183.93C131.11 223.22 149.13 269.76 199.5 322.24C230.57 354.62 243.18 387.51 236.99 420.02C219.57 511.55 57.5799 585.84 -60.7001 640.08C-134.66 674 -193.08 700.79 -191.57 719.71C-191.02 726.63 -182.41 732.29 -165.26 737.04L-165.53 738.01Z" fill="#181818"/>
<path d="M-176.62 745.46C-193.83 740.99 -202.53 735.3 -203.23 728.05C-205.11 708.39 -145.71 680.09 -70.52 644.26C49.41 587.12 213.66 508.85 230.74 416.29C236.58 384.61 224.6 352.85 195.11 321.91C146.3 270.69 128.97 224.58 143.59 184.87C152.42 160.89 172.99 139.1 204.73 120.09C230.08 104.91 262.58 91.46 301.33 80.11C367.28 60.8 429.32 54.19 429.94 54.12C430.54 54.17 481.15 58.86 539.23 51.53C592.78 44.77 663.82 26.1201 698.17 -24.36C731.23 -72.96 725.2 -142.32 680.24 -230.52L681.13 -230.97C726.27 -142.42 732.28 -72.71 699 -23.79C683.73 -1.34998 660.07 16.76 628.68 30.04C603.59 40.65 573.54 48.22 539.35 52.53C481.16 59.87 430.46 55.17 429.96 55.12C429.44 55.18 367.48 61.79 301.62 81.08C262.96 92.4 230.54 105.82 205.26 120.95C173.72 139.83 153.29 161.45 144.55 185.21C130.07 224.53 147.33 270.29 195.86 321.21C225.58 352.4 237.66 384.45 231.75 416.46C214.58 509.52 50.06 587.91 -70.06 645.15C-144.9 680.81 -204.02 708.98 -202.21 727.94C-201.56 734.71 -193.1 740.12 -176.35 744.47L-176.62 745.46Z" fill="#181818"/>
<path d="M-187.81 753.15C-204.65 749.07 -213.21 743.63 -214 736.54C-216.18 716.87 -156.07 687.16 -79.96 649.55C41.88 589.35 208.73 506.89 225.56 412.84C231.14 381.67 219.67 350.76 191.49 320.97C144.5 271.3 127.89 225.98 142.15 186.29C150.96 161.75 171.66 139.19 203.66 119.25C229.22 103.32 262.03 89.0099 301.16 76.71C367.76 55.77 430.47 47.83 431.1 47.75C431.7 47.79 482.36 51.51 540.66 42.92C594.41 35 665.83 14.7 700.84 -37.06C734.23 -86.41 729.41 -155.6 686.53 -242.72L687.43 -243.16C730.49 -155.7 735.28 -86.17 701.67 -36.5C686.11 -13.5 662.19 5.28995 630.57 19.36C605.31 30.5999 575.1 38.86 540.78 43.91C482.37 52.51 431.62 48.78 431.12 48.74C430.59 48.8199 367.96 56.75 301.45 77.66C262.4 89.94 229.68 104.22 204.19 120.1C172.38 139.92 151.83 162.3 143.09 186.63C128.98 225.94 145.51 270.91 192.22 320.28C220.64 350.31 232.19 381.51 226.55 413.01C209.63 507.56 42.5099 590.14 -79.52 650.44C-155.28 687.88 -215.12 717.45 -213.01 736.42C-212.27 743.05 -203.95 748.2 -187.58 752.17L-187.81 753.15Z" fill="#181818"/>
<path d="M-199.14 761.09C-215.61 757.39 -224.05 752.21 -224.93 745.26C-227.42 725.59 -166.56 694.46 -89.5 655.04C34.31 591.7 203.87 504.96 220.46 409.45C225.78 378.82 214.83 348.75 187.91 320.08C142.7 271.93 126.81 227.43 140.68 187.8C149.47 162.69 170.29 139.36 202.58 118.47C228.37 101.78 261.49 86.58 301.03 73.31C368.33 50.71 431.76 41.4 432.39 41.31L432.44 41.3H432.49C432.99 41.33 483.73 44.0699 542.27 34.21C596.24 25.11 668.08 3.13995 703.78 -49.92C737.49 -100.02 733.88 -169.05 693.04 -255.11L693.94 -255.54C734.94 -169.14 738.53 -99.77 704.61 -49.36C688.75 -25.79 664.55 -6.30003 632.7 8.55997C607.24 20.44 576.87 29.4 542.41 35.2C484.59 44.94 434.37 42.4099 432.48 42.3C430.4 42.61 367.75 51.96 301.33 74.26C261.87 87.51 228.83 102.67 203.11 119.31C171.02 140.08 150.33 163.24 141.62 188.13C127.89 227.38 143.71 271.54 188.64 319.4C215.79 348.31 226.83 378.67 221.45 409.62C204.77 505.63 34.95 592.5 -89.04 655.93C-165.74 695.17 -226.33 726.16 -223.93 745.13C-223.11 751.61 -214.93 756.51 -198.92 760.11L-199.14 761.09Z" fill="#181818"/>
<path d="M-210.61 769.28C-226.73 765.94 -235.04 761.02 -236 754.22C-238.79 734.58 -177.16 702 -99.1301 660.75C26.7199 594.22 199.07 503.09 215.43 406.17C220.51 376.1 210.05 346.87 184.35 319.28C140.89 272.63 125.69 228.95 139.17 189.43C147.93 163.75 168.89 139.64 201.47 117.78C227.5 100.31 260.96 84.2201 300.93 69.9501C368.97 45.6601 433.16 34.94 433.8 34.83L433.85 34.8201H433.9C434.41 34.8401 485.25 36.5901 544.07 25.4401C598.3 15.1501 670.59 -8.52997 707.01 -62.92C741.05 -113.75 738.62 -182.64 699.79 -267.66L700.7 -268.08C739.68 -182.72 742.08 -113.51 707.84 -62.3699C691.66 -38.2099 667.18 -18.02 635.08 -2.34998C609.42 10.17 578.86 19.85 544.24 26.42C486.15 37.44 435.82 35.8801 433.92 35.8201C431.83 36.1701 368.42 46.9101 301.26 70.8901C261.37 85.1301 227.98 101.19 202.03 118.61C169.64 140.35 148.81 164.29 140.12 189.75C126.77 228.89 141.9 272.24 185.09 318.59C211.01 346.41 221.56 375.93 216.43 406.33C199.97 503.75 27.3599 595 -98.6701 661.63C-176.35 702.7 -237.7 735.14 -235.01 754.08C-234.11 760.4 -226.06 765.06 -210.4 768.3L-210.61 769.28Z" fill="#181818"/>
<path d="M-222.2 777.72C-237.99 774.73 -246.17 770.06 -247.22 763.42C-250.31 743.82 -187.88 709.76 -108.85 666.64C19.09 596.84 194.32 501.23 210.45 402.94C215.29 373.45 205.31 345.05 180.8 318.52C139.05 273.35 124.52 230.49 137.6 191.14C146.33 164.89 167.43 140 200.32 117.14C226.6 98.8799 260.42 81.8699 300.85 66.5899C369.67 40.5699 434.67 28.3999 435.31 28.2799L435.36 28.2699H435.41C435.92 28.2799 486.9 29.0299 546.02 16.5699C600.54 5.07996 673.32 -20.33 710.47 -76.09C744.82 -127.65 743.56 -196.39 706.73 -280.4L707.65 -280.8C744.63 -196.46 745.86 -127.4 711.31 -75.53C694.81 -50.7701 670.03 -29.86 637.66 -13.36C611.78 -0.180054 581.01 10.2299 546.22 17.5599C487.83 29.8699 437.35 29.3099 435.46 29.2799C433.35 29.6799 369.14 41.8499 301.2 67.5399C260.85 82.8 227.1 99.77 200.89 117.98C168.18 140.71 147.21 165.43 138.55 191.47C125.59 230.45 140.05 272.97 181.53 317.85C206.26 344.61 216.33 373.3 211.43 403.11C195.22 501.89 19.75 597.62 -108.38 667.52C-187.07 710.45 -249.22 744.36 -246.24 763.26C-245.27 769.43 -237.35 773.84 -222.03 776.74L-222.2 777.72Z" fill="#181818"/>
<path d="M-233.95 786.42C-249.41 783.78 -257.48 779.34 -258.6 772.86C-261.98 753.33 -198.74 717.78 -118.68 672.77C11.43 599.63 189.62 499.45 205.53 399.83C210.15 370.94 200.64 343.36 177.26 317.85C137.19 274.13 123.31 232.12 136 192.98C144.69 166.17 165.94 140.47 199.16 116.62C225.7 97.5599 259.9 79.6199 300.82 63.2899C370.46 35.4999 436.31 21.8499 436.97 21.7099C437.58 21.6999 488.73 21.4399 548.19 7.64993C603.02 -5.07007 676.35 -32.23 714.25 -89.39C748.92 -141.67 748.82 -210.28 713.95 -293.29L714.87 -293.68C749.88 -210.33 749.96 -141.41 715.08 -88.83C698.25 -63.4601 673.16 -41.8101 640.49 -24.4701C614.38 -10.6201 583.39 0.519958 548.39 8.63995C488.82 22.46 437.58 22.7099 437.07 22.7099C436.51 22.8299 370.74 36.4699 301.18 64.2299C260.34 80.5299 226.21 98.4299 199.74 117.44C166.7 141.17 145.57 166.69 136.95 193.3C124.38 232.07 138.19 273.75 178 317.19C201.59 342.93 211.18 370.79 206.52 400C190.53 500.09 12.09 600.41 -118.19 673.65C-197.91 718.47 -260.88 753.87 -257.62 772.7C-256.58 778.71 -248.78 782.88 -233.79 785.44L-233.95 786.42Z" fill="#181818"/>
<path d="M-245.84 795.37C-260.99 793.06 -268.94 788.87 -270.13 782.55C-273.8 763.11 -209.72 726.04 -128.59 679.1C3.74997 602.54 184.99 497.69 200.7 396.8C205.1 368.52 196.04 341.76 173.78 317.24C135.36 274.94 122.11 233.78 134.39 194.9C143.04 167.52 164.45 141.02 198.01 116.15C224.83 96.28 259.42 77.39 300.85 60C371.35 30.4 438.1 15.23 438.77 15.08C439.38 15.06 490.72 13.78 550.56 -1.35999C605.74 -15.32 679.65 -44.27 718.34 -102.86C753.33 -155.85 754.37 -224.32 721.43 -306.38L722.36 -306.75C755.43 -224.37 754.36 -155.59 719.18 -102.31C702.01 -76.31 676.58 -53.91 643.6 -35.72C617.24 -21.18 586.01 -9.30002 550.79 -0.390015C490.84 14.78 439.41 16.06 438.89 16.07C438.32 16.21 371.65 31.37 301.23 60.93C259.88 78.29 225.36 97.14 198.61 116.96C165.22 141.7 143.94 168.03 135.35 195.2C123.18 233.72 136.36 274.55 174.52 316.56C197 341.31 206.14 368.35 201.69 396.94C185.9 498.32 4.41998 603.31 -128.09 679.96C-208.88 726.7 -272.69 763.61 -269.15 782.35C-268.06 788.12 -260.17 792.17 -245.69 794.37L-245.84 795.37Z" fill="#181818"/>
<path d="M-257.88 804.59C-272.74 802.6 -280.57 798.64 -281.83 792.48C-285.79 773.15 -220.84 734.53 -138.62 685.65C-3.99002 605.61 180.4 495.98 195.91 393.87C200.11 366.22 191.49 340.26 170.29 316.7C133.48 275.8 120.84 235.5 132.72 196.92C141.33 168.97 162.9 141.67 196.82 115.77C223.92 95.07 258.94 75.21 300.9 56.74C372.31 25.3 440 8.56003 440.68 8.39001C441.29 8.35001 492.85 6.04001 553.1 -10.47C608.66 -25.69 683.18 -56.45 722.67 -116.49C757.98 -170.18 760.14 -238.53 729.1 -319.65L730.03 -320.01C761.19 -238.57 759 -169.92 723.5 -115.94C705.98 -89.3 680.2 -66.13 646.9 -47.08C620.27 -31.85 588.79 -19.21 553.34 -9.48999C492.99 7.04001 441.33 9.36002 440.82 9.38C440.24 9.53 372.63 26.25 301.29 57.66C259.41 76.1 224.46 95.92 197.42 116.57C163.67 142.34 142.22 169.48 133.67 197.22C121.9 235.44 134.46 275.41 171.03 316.03C192.44 339.82 201.14 366.06 196.89 394.02C181.32 496.6 -3.30005 606.36 -138.1 686.51C-219.98 735.19 -284.66 773.64 -280.85 792.28C-279.7 797.9 -271.93 801.7 -257.75 803.6L-257.88 804.59Z" fill="#181818"/>
</g>
<g clip-path="url(#clip2_894_3910)">
<path d="M309 220.955C309 180.121 275.997 147 235.24 147C215.823 147 198.218 154.486 185.028 166.793C171.839 154.486 154.177 147 134.817 147C94.0591 147 61 180.121 61 220.955C61 243.527 71.1328 263.718 87.0397 277.329L184.972 370.057L282.96 277.329C298.867 263.718 309 243.527 309 220.955Z" fill="#ED2224"/>
</g>
<g clip-path="url(#clip3_894_3910)">
<path d="M57 30.6226C57 25.8616 53.1408 22 48.3748 22C46.1043 22 44.0457 22.8728 42.5033 24.3077C40.961 22.8728 38.8957 22 36.6318 22C31.8658 22 28 25.8616 28 30.6226C28 33.2543 29.1849 35.6083 31.045 37.1953L42.4967 48.0066L53.955 37.1953C55.8151 35.6083 57 33.2543 57 30.6226Z" fill="#ED2224"/>
</g>
</g>
<rect x="1" y="1" width="368" height="483" rx="15" stroke="#ED2224"/>
<defs>
<clipPath id="clip0_894_3910">
<rect x="1" y="1" width="368" height="483" rx="15" fill="white"/>
</clipPath>
<clipPath id="clip1_894_3910">
<rect width="1033.89" height="1124.59" fill="white" transform="translate(-162 -320)"/>
</clipPath>
<clipPath id="clip2_894_3910">
<rect width="248" height="223" fill="white" transform="translate(61 147)"/>
</clipPath>
<clipPath id="clip3_894_3910">
<rect width="29" height="26" fill="white" transform="translate(28 22)"/>
</clipPath>
</defs>
</svg>
