<svg width="370" height="485" viewBox="0 0 370 485" fill="none" xmlns="http://www.w3.org/2000/svg">
<g clip-path="url(#clip0_894_3903)">
<rect x="1" y="1" width="368" height="483" rx="15" fill="#030303"/>
<g clip-path="url(#clip1_894_3903)">
<path d="M70.5598 630.06C41.1298 613.1 28.4198 601.23 30.5798 592.69C34.3498 577.77 84.1598 576.4 147.22 574.65C195.87 573.31 251.01 571.78 296.97 563.69C350.06 554.34 380.38 537.97 389.66 513.63C395.78 497.57 392.54 477.65 380.02 454.43C366.22 428.83 340.7 398.39 304.19 363.94C206.3 271.6 165.95 209.11 184.26 178.22C192.21 164.8 211.29 157.38 240.96 156.16C264.59 155.18 294.99 158.12 331.31 164.87C393.12 176.36 451.47 195.2 452.05 195.38C452.68 195.67 509.76 222.48 571.44 242.04C607.65 253.52 638.34 260.29 662.65 262.17C692.91 264.5 713.26 259.22 723.14 246.46C747.64 214.85 709.25 137.61 609.03 16.87L609.8 16.23C710.36 137.38 748.76 215.04 723.93 247.07C713.83 260.11 693.18 265.52 662.57 263.16C638.18 261.28 607.42 254.49 571.13 242.99C509.38 223.41 452.25 196.58 451.68 196.31C451.16 196.14 392.86 177.32 331.12 165.85C249.58 150.7 199.1 155.15 185.12 178.73C167.08 209.17 207.37 271.24 304.88 363.22C341.48 397.74 367.06 428.27 380.91 453.97C393.57 477.46 396.83 497.65 390.6 514C381.18 538.69 350.62 555.27 297.15 564.69C251.11 572.8 195.93 574.32 147.25 575.66C87.0898 577.32 35.1398 578.76 31.5498 592.94C29.5498 600.87 42.4698 612.73 71.0598 629.2L70.5598 630.06Z" fill="#181818"/>
<path d="M61.1399 632.8C32.3399 616.51 19.8799 604.92 21.9199 596.32C25.5399 581.1 75.4799 578.72 138.7 575.71C187.57 573.38 242.97 570.75 289.15 561.59C342.51 551.01 372.95 533.71 382.22 508.71C388.23 492.49 385.14 472.65 373.01 449.73C359.66 424.5 334.94 394.73 299.54 361.24C204.06 270.91 164.96 209.16 183.33 177.7C191.36 163.94 210.45 156.01 240.06 154.12C263.65 152.62 293.95 154.92 330.15 160.97C391.74 171.26 449.82 189.06 450.4 189.24C451.02 189.52 507.52 215.31 568.74 233.71C625.12 250.65 697.12 264.62 720 234.96C744.89 202.7 708.09 126.02 610.61 7.06995L611.38 6.43994C709.19 125.8 746 202.9 720.79 235.58C710.5 248.91 689.82 254.79 659.33 253.06C635.03 251.68 604.46 245.49 568.45 234.67C507.17 216.26 450.61 190.44 450.05 190.18C449.53 190.02 391.51 172.24 329.98 161.96C248.74 148.39 198.33 154.01 184.2 178.21C166.1 209.21 205.14 270.55 300.24 360.51C335.72 394.07 360.5 423.93 373.91 449.26C386.17 472.43 389.29 492.55 383.17 509.05C373.77 534.4 343.08 551.91 289.36 562.56C243.1 571.73 187.67 574.37 138.76 576.7C78.4399 579.57 26.3499 582.05 22.8999 596.54C20.9999 604.52 33.6699 616.09 61.6399 631.91L61.1399 632.8Z" fill="#181818"/>
<path d="M51.6899 635.74C23.5099 620.1 11.2799 608.79 13.2099 600.15C16.6699 584.63 66.7599 581.24 130.18 576.95C179.31 573.62 234.99 569.86 281.41 559.62C335.06 547.79 365.64 529.56 374.89 503.88C380.79 487.51 377.82 467.75 366.08 445.15C353.17 420.3 329.24 391.2 294.94 358.66C201.85 270.33 163.98 209.3 182.38 177.28C190.49 163.17 209.59 154.72 239.16 152.16C262.71 150.13 292.95 151.8 329.03 157.14C390.43 166.22 448.28 183 448.86 183.17C449.48 183.44 505.43 208.23 566.2 225.46C622.17 241.33 693.77 253.88 717.07 223.54C742.35 190.61 707.12 114.48 612.34 -2.72989L613.12 -3.35986C708.22 114.26 743.46 190.8 717.86 224.15C707.39 237.79 686.68 244.14 656.28 243.03C632.06 242.15 601.66 236.56 565.91 226.42C505.07 209.16 449.07 184.36 448.51 184.11C448 183.96 390.21 167.2 328.87 158.13C247.87 146.15 197.51 152.94 183.25 177.78C165.11 209.35 202.92 269.96 295.63 357.94C330 390.56 354 419.75 366.97 444.7C378.85 467.56 381.83 487.59 375.83 504.23C366.45 530.26 335.64 548.7 281.62 560.61C235.12 570.86 179.4 574.63 130.24 577.96C69.7299 582.05 17.4799 585.59 14.1799 600.38C12.3899 608.41 24.8099 619.69 52.1699 634.87L51.6899 635.74Z" fill="#181818"/>
<path d="M42.19 638.87C15 624.08 2.64996 612.73 4.42996 604.17C7.71996 588.35 58 583.94 121.65 578.35C171.06 574.01 227.06 569.1 273.76 557.76C327.74 544.66 358.46 525.47 367.69 499.1C373.46 482.6 370.63 462.93 359.26 440.64C346.78 416.16 323.61 387.73 290.41 356.12C199.68 269.75 163.01 209.44 181.43 176.86C189.61 162.39 208.74 153.41 238.27 150.18C261.8 147.61 291.98 148.65 327.97 153.28C389.22 161.15 446.87 176.91 447.45 177.07C448.07 177.33 503.49 201.12 563.84 217.2C619.42 232.01 690.66 243.14 714.4 212.08C740.08 178.47 706.4 102.86 614.3 -12.64L615.08 -13.26C707.5 102.65 741.19 178.68 715.2 212.7C704.54 226.65 683.79 233.49 653.48 233C629.33 232.62 599.09 227.63 563.58 218.17C503.16 202.07 447.68 178.26 447.12 178.02C446.61 177.89 389.02 162.15 327.84 154.28C271.5 147.04 200.52 145.16 182.31 177.36C164.14 209.49 200.75 269.39 291.11 355.4C324.39 387.08 347.63 415.61 360.16 440.19C371.66 462.73 374.51 482.67 368.64 499.44C359.29 526.15 328.34 545.55 274 558.74C227.23 570.09 171.18 575.02 121.74 579.36C61 584.69 8.54997 589.3 5.40997 604.39C3.72997 612.46 15.92 623.45 42.67 638L42.19 638.87Z" fill="#181818"/>
<path d="M32.66 642.21C6.06002 628.04 -6.05998 616.99 -4.39998 608.4C-1.28998 592.29 49.2 586.84 113.11 579.94C162.84 574.57 219.19 568.49 266.19 556.03C320.53 541.63 351.41 521.47 360.61 494.4C366.25 477.78 363.54 458.22 352.54 436.24C340.48 412.14 318.07 384.37 285.94 353.69C197.54 269.27 162.06 209.66 180.48 176.53C188.73 161.68 207.88 152.17 237.4 148.26C260.92 145.14 291.05 145.55 326.98 149.46C388.11 156.12 445.6 170.85 446.18 171C446.8 171.25 501.72 194.05 561.68 208.98C616.91 222.73 687.81 232.45 711.98 200.65C738.05 166.35 705.91 91.24 616.44 -22.6L617.23 -23.22C707.01 91.03 739.16 166.55 712.78 201.25C701.93 215.52 681.11 222.83 650.89 222.99C626.76 223.15 596.7 218.73 561.42 209.94C501.38 194.99 446.4 172.17 445.85 171.94C445.34 171.82 387.91 157.1 326.85 150.45C270.61 144.32 199.73 143.96 181.35 177.01C163.18 209.69 198.6 268.89 286.63 352.96C318.84 383.72 341.31 411.58 353.43 435.78C364.56 458 367.29 477.83 361.56 494.71C352.25 522.12 321.14 542.49 266.45 556.98C219.38 569.46 162.98 575.54 113.22 580.92C52.23 587.5 -0.439989 593.19 -3.40999 608.58C-4.97999 616.67 6.98003 627.38 33.14 641.31L32.66 642.21Z" fill="#181818"/>
<path d="M23.08 645.73C-2.92998 632.18 -14.82 621.41 -13.29 612.81C-10.37 596.41 40.35 589.91 104.56 581.68C154.63 575.27 211.39 567.99 258.71 554.4C313.44 538.68 344.5 517.53 353.65 489.75C359.16 473.03 356.56 453.58 345.91 431.92C334.25 408.21 312.59 381.09 281.53 351.32C195.44 268.82 161.11 209.92 179.52 176.24C187.84 161.01 207.02 150.95 236.52 146.35C260.03 142.68 290.14 142.44 326.02 145.64C387.07 151.08 444.43 164.78 445.01 164.92C445.62 165.16 500.08 186.97 559.68 200.76C594.67 208.85 624.56 212.64 648.5 212C678.33 211.21 698.96 203.54 709.8 189.2C736.26 154.2 705.64 79.56 618.77 -32.65L619.56 -33.26C706.73 79.36 737.36 154.41 710.59 189.81C699.55 204.41 678.66 212.21 648.51 213.01C624.47 213.64 594.5 209.85 559.43 201.74C499.75 187.94 445.24 166.1 444.69 165.88C444.19 165.76 386.88 152.08 325.91 146.65C269.76 141.65 198.92 142.81 180.38 176.73C162.22 209.96 196.48 268.46 282.21 350.61C313.36 380.46 335.09 407.67 346.8 431.49C357.56 453.39 360.18 473.1 354.59 490.07C345.32 518.19 314.05 539.55 258.97 555.37C211.57 568.99 154.77 576.26 104.67 582.68C43.3901 590.53 -9.52997 597.31 -12.32 612.99C-13.77 621.1 -2.03997 631.52 23.53 644.84L23.08 645.73Z" fill="#181818"/>
<path d="M13.4501 649.47C-11.9799 636.52 -23.66 626.05 -22.25 617.44C-19.53 600.75 31.45 593.19 96 583.62C146.45 576.14 203.63 567.66 251.31 552.9C306.47 535.83 337.7 513.68 346.81 485.18C352.18 468.38 349.68 449.04 339.39 427.71C328.13 404.39 307.2 377.92 277.18 349.05C193.37 268.45 160.18 210.24 178.55 176.02C186.94 160.4 206.15 149.78 235.66 144.48C259.18 140.25 289.28 139.37 325.13 141.84C386.13 146.05 443.41 158.72 443.98 158.85C444.59 159.08 498.6 179.92 557.86 192.56C592.65 199.98 622.4 203.16 646.32 202.02C676.11 200.6 696.81 192.43 707.86 177.75C734.72 142.05 705.59 67.8501 621.3 -42.7699L622.09 -43.3799C706.69 67.6401 735.82 142.24 708.66 178.35C697.42 193.29 676.47 201.59 646.37 203.02C622.37 204.16 592.52 200.97 557.65 193.53C498.31 180.87 444.24 160.01 443.7 159.8C443.2 159.69 385.98 147.04 325.06 142.83C268.95 138.96 198.14 141.65 179.44 176.48C161.31 210.25 194.43 268.07 277.88 348.32C307.99 377.28 328.99 403.84 340.3 427.27C350.71 448.84 353.22 468.42 347.78 485.48C338.57 514.32 307.11 536.68 251.62 553.85C203.87 568.63 146.64 577.11 96.16 584.6C32.02 594.11 -18.64 601.62 -21.25 617.59C-22.58 625.71 -11.0699 635.84 13.9201 648.57L13.4501 649.47Z" fill="#181818"/>
<path d="M3.76007 653.4C-21.0999 641.05 -32.5699 630.86 -31.2899 622.26C-28.7799 605.29 22.4901 596.66 87.4001 585.73C138.26 577.16 195.91 567.45 243.97 551.52C299.58 533.08 331.02 509.91 340.07 480.67C345.29 463.8 342.9 444.6 332.94 423.6C322.07 400.67 301.86 374.85 272.86 346.86C191.3 268.14 159.23 210.62 177.54 175.87C185.99 159.84 205.25 148.66 234.77 142.65C258.31 137.86 288.42 136.32 324.25 138.06C385.23 141.03 442.46 152.67 443.04 152.79C443.65 153.01 497.24 172.88 556.2 184.38C590.81 191.13 620.46 193.71 644.35 192.06C674.1 190 694.9 181.33 706.15 166.29C733.4 129.87 705.76 56.0999 624.01 -52.9601L624.81 -53.5601C706.86 55.8999 734.5 130.07 706.95 166.89C695.51 182.18 674.47 190.98 644.41 193.06C620.44 194.72 590.69 192.13 556 185.36C496.96 173.85 443.31 153.95 442.77 153.75C442.27 153.65 385.11 142.03 324.2 139.06C268.1 136.33 197.27 140.58 178.43 176.33C160.35 210.63 192.36 267.76 273.56 346.13C302.65 374.2 322.93 400.12 333.85 423.16C343.91 444.4 346.33 463.84 341.03 480.95C331.87 510.51 300.23 533.9 244.29 552.45C196.15 568.41 138.47 578.13 87.5701 586.7C23.0601 597.57 -27.8899 606.15 -30.2999 622.39C-31.4999 630.51 -20.22 640.35 4.21005 652.49L3.76007 653.4Z" fill="#181818"/>
<path d="M-5.98012 657.54C-30.2801 645.77 -41.5401 635.87 -40.3901 627.29C-38.1001 610.06 13.4899 600.33 78.7899 588.02C130.09 578.35 188.24 567.38 236.71 550.24C292.81 530.4 324.46 506.19 333.45 476.22C338.53 459.3 336.22 440.25 326.6 419.58C316.11 397.05 296.6 371.87 268.61 344.76C189.28 267.9 158.31 211.06 176.54 175.8C185.05 159.35 204.35 147.6 233.91 140.87C257.48 135.51 287.61 133.3 323.46 134.31C384.46 136.03 441.69 146.63 442.26 146.74C442.87 146.95 496.06 165.86 554.74 176.21C589.19 182.29 618.75 184.27 642.61 182.1C672.35 179.4 693.23 170.22 704.7 154.82C732.34 117.67 706.17 44.3099 626.92 -63.2301L627.72 -63.8201C707.26 44.1199 733.43 117.88 705.49 155.42C693.85 171.06 672.72 180.38 642.69 183.1C618.73 185.27 589.08 183.28 554.55 177.19C495.78 166.82 442.52 147.89 441.99 147.7C441.5 147.61 384.34 137.03 323.41 135.31C287.64 134.3 257.61 136.5 234.12 141.84C204.86 148.5 185.79 160.07 177.42 176.25C159.41 211.07 190.32 267.52 269.3 344.03C297.38 371.24 316.96 396.51 327.5 419.15C337.23 440.05 339.55 459.34 334.4 476.5C325.31 506.8 293.46 531.23 237.03 551.18C188.48 568.35 130.3 579.32 78.9599 589C14.0499 601.24 -37.2201 610.91 -39.4201 627.42C-40.5001 635.53 -29.4201 645.09 -5.5601 656.64L-5.98012 657.54Z" fill="#181818"/>
<path d="M-15.77 661.88C-39.52 650.68 -50.58 641.07 -49.57 632.51C-47.51 615.01 4.42004 604.18 70.15 590.47C121.92 579.67 180.61 567.43 229.52 549.06C286.14 527.8 318.01 502.53 326.94 471.81C331.87 454.86 329.65 435.96 320.36 415.63C310.24 393.5 291.42 368.97 264.42 342.7C187.3 267.68 157.39 211.52 175.53 175.77C184.09 158.89 203.44 146.56 233.05 139.1C256.66 133.16 286.82 130.27 322.71 130.55C383.77 131.01 441.02 140.57 441.59 140.66C442.2 140.86 495.02 158.81 553.46 168.02C587.76 173.43 617.25 174.8 641.1 172.12C670.83 168.78 691.83 159.08 703.5 143.3C731.53 105.42 706.81 32.44 630.04 -73.61L630.85 -74.2C707.9 32.25 732.62 105.63 704.3 143.9C692.45 159.91 671.22 169.74 641.2 173.12C617.25 175.81 587.68 174.43 553.29 169.01C494.77 159.79 441.87 141.81 441.34 141.63C440.85 141.55 383.67 132.01 322.68 131.55C286.91 131.28 256.81 134.15 233.28 140.07C203.97 147.45 184.84 159.61 176.41 176.22C158.49 211.53 188.34 267.3 265.11 341.98C292.2 368.33 311.09 392.97 321.26 415.21C330.66 435.77 332.89 454.9 327.89 472.08C318.87 503.12 286.8 528.61 229.86 549.99C180.88 568.39 122.15 580.64 70.34 591.45C5.00005 605.08 -46.6099 615.85 -48.5899 632.63C-49.5399 640.71 -38.67 649.99 -15.36 660.98L-15.77 661.88Z" fill="#181818"/>
<path d="M-25.64 666.43C-48.85 655.79 -59.71 646.47 -58.83 637.94C-57 620.19 -4.70996 608.24 61.49 593.1C113.77 581.15 173.03 567.6 222.4 547.98C279.58 525.26 311.68 498.92 320.54 467.45C325.31 450.5 323.18 431.76 314.2 411.78C304.44 390.06 286.3 366.16 260.27 340.73C185.33 267.54 156.47 212.05 174.49 175.83C183.1 158.51 202.51 145.58 232.18 137.39C255.84 130.86 286.06 127.3 322 126.82C383.15 126.01 440.47 134.51 441.05 134.6C441.65 134.79 494.14 151.79 552.36 159.85C586.53 164.58 615.95 165.36 639.81 162.15C669.55 158.15 690.66 147.93 702.55 131.77C730.96 93.1501 707.68 20.5301 633.37 -84.0699L634.18 -84.6499C708.78 20.3301 732.05 93.3501 703.35 132.36C691.29 148.75 669.95 159.11 639.93 163.14C615.98 166.36 586.46 165.58 552.2 160.83C493.9 152.75 441.34 135.73 440.81 135.56C440.32 135.49 383.07 126.99 322 127.81C286.15 128.29 256.02 131.83 232.44 138.34C203.06 146.45 183.87 159.21 175.39 176.26C157.59 212.06 186.38 267.15 260.97 340C287.09 365.51 305.3 389.52 315.11 411.35C324.19 431.56 326.34 450.52 321.5 467.71C312.55 499.5 280.26 526.06 222.77 548.9C173.32 568.55 114.03 582.11 61.71 594.07C-4.09996 609.12 -56.0799 621 -57.8399 638.04C-58.6699 646.09 -48 655.08 -25.2299 665.52L-25.64 666.43Z" fill="#181818"/>
<path d="M-35.5701 671.19C-58.2501 661.1 -68.9201 652.07 -68.1701 643.58C-66.5901 625.59 -13.9101 612.49 52.7899 595.91C105.61 582.78 165.47 567.9 215.34 547C273.1 522.8 305.45 495.37 314.23 463.14C318.85 446.19 316.79 427.64 308.13 408C298.73 386.69 281.25 363.42 256.17 338.82C183.39 267.43 155.56 212.63 173.43 175.94C182.09 158.17 201.56 144.63 231.3 135.69C255.02 128.56 285.31 124.32 321.33 123.08C382.61 120.98 440.04 128.42 440.62 128.5C441.22 128.68 493.4 144.73 551.42 151.65C585.47 155.71 614.85 155.88 638.72 152.14C668.48 147.49 689.72 136.73 701.83 120.17C730.62 80.79 708.77 8.52003 636.87 -94.65L637.69 -95.22C709.86 8.34003 731.71 81 702.64 120.76C690.37 137.54 668.91 148.43 638.87 153.13C614.9 156.88 585.44 156.71 551.29 152.64C493.18 145.71 440.93 129.64 440.41 129.47C439.92 129.41 382.56 121.98 321.36 124.08C285.43 125.31 255.23 129.54 231.59 136.65C202.13 145.51 182.87 158.88 174.34 176.38C156.67 212.64 184.45 267.05 256.88 338.11C282.04 362.8 299.6 386.17 309.05 407.6C317.81 427.46 319.88 446.23 315.2 463.4C306.33 495.94 273.79 523.59 215.73 547.91C165.79 568.83 105.89 583.73 53.0399 596.86C-13.2701 613.34 -65.6501 626.36 -67.1701 643.64C-67.8701 651.65 -57.4001 660.35 -35.1601 670.25L-35.5701 671.19Z" fill="#181818"/>
<path d="M-45.5801 676.16C-67.7401 666.61 -78.2201 657.86 -77.6101 649.43C-76.2901 631.21 -23.1801 616.96 44.0499 598.91C97.4299 584.58 157.94 568.34 208.34 546.14C266.72 520.42 299.34 491.89 308.03 458.91C317.31 423.73 298.5 382.72 252.12 337.02C181.48 267.41 154.64 213.3 172.35 176.17C181.05 157.94 200.58 143.77 230.41 134.07C254.2 126.33 284.58 121.39 320.7 119.39C382.16 115.98 439.73 122.36 440.31 122.42C440.91 122.59 492.8 137.69 550.66 143.46C584.62 146.85 613.96 146.4 637.86 142.14C667.66 136.82 689.03 125.52 701.36 108.55C730.53 68.4199 710.08 -3.53011 640.58 -105.3L641.41 -105.86C711.18 -3.7001 731.62 68.6299 702.18 109.14C689.69 126.33 668.11 137.76 638.04 143.12C614.05 147.4 584.62 147.85 550.56 144.45C492.61 138.67 440.64 123.54 440.12 123.39C439.63 123.34 382.13 116.98 320.75 120.38C284.72 122.38 254.43 127.3 230.72 135.02C201.17 144.63 181.83 158.62 173.26 176.6C155.75 213.3 182.52 267.03 252.82 336.3C277.05 360.18 293.96 382.93 303.07 403.94C311.53 423.44 313.52 442.02 309 459.15C300.22 492.44 267.42 521.19 208.74 547.04C158.28 569.27 97.7299 585.52 44.3099 599.86C-22.5401 617.8 -75.3401 631.98 -76.6101 649.48C-77.1901 657.43 -66.9101 665.85 -45.1801 675.21L-45.5801 676.16Z" fill="#181818"/>
<path d="M-55.66 681.35C-77.31 672.32 -87.61 663.86 -87.13 655.5C-86.07 637.07 -32.52 621.64 35.27 602.1C89.25 586.54 150.44 568.91 201.38 545.39C260.42 518.13 293.3 488.48 301.91 454.74C310.86 419.69 292.75 379.5 248.09 335.29C179.56 267.45 153.7 214.02 171.23 176.49C179.97 157.78 199.57 142.98 229.5 132.51C253.38 124.15 283.86 118.5 320.1 115.72C381.77 110.99 439.53 116.28 440.11 116.33C440.71 116.49 492.35 130.65 550.07 135.27C583.95 137.98 613.27 136.92 637.21 132.12C667.06 126.13 688.57 114.28 701.13 96.89C730.68 56 711.62 -15.64 644.48 -116.05L645.31 -116.61C712.71 -15.82 731.76 56.2 701.94 97.47C689.22 115.07 667.51 127.05 637.4 133.09C613.37 137.91 583.95 138.97 549.98 136.26C492.16 131.63 440.45 117.45 439.93 117.3C439.44 117.26 381.75 111.98 320.17 116.71C284.02 119.49 253.63 125.12 229.83 133.45C200.17 143.83 180.76 158.46 172.14 176.91C154.81 214.02 180.6 267.07 248.8 334.58C272.12 357.66 288.39 379.8 297.16 400.4C305.32 419.54 307.24 437.9 302.88 454.99C294.19 489.04 261.13 518.91 201.8 546.3C150.79 569.85 89.56 587.5 35.54 603.06C-31.87 622.49 -85.12 637.83 -86.14 655.56C-86.59 663.45 -76.5 671.58 -55.29 680.43L-55.66 681.35Z" fill="#181818"/>
<path d="M-65.83 686.75C-86.99 678.23 -97.1 670.06 -96.75 661.77C-95.96 643.14 -41.95 626.51 26.45 605.46C81.07 588.65 142.97 569.6 194.49 544.73C254.22 515.9 287.39 485.11 295.91 450.62C304.52 415.74 287.1 376.38 244.13 333.63C177.69 267.54 152.79 214.8 170.11 176.89C178.88 157.7 198.56 142.25 228.6 130.99C252.57 122 283.18 115.63 319.56 112.06C381.47 105.98 439.47 110.17 440.05 110.22C440.65 110.37 492.06 123.59 549.68 127.05C583.5 129.08 612.82 127.4 636.8 122.05C666.72 115.38 688.38 102.97 701.18 85.15C731.1 43.49 713.41 -27.86 648.61 -126.93L649.45 -127.48C714.5 -28.03 732.18 43.7 702 85.73C689.05 103.76 667.19 116.3 637.02 123.02C612.94 128.39 583.53 130.07 549.61 128.04C491.89 124.57 440.4 111.33 439.89 111.19C439.4 111.16 381.48 106.98 319.65 113.05C283.36 116.62 252.84 122.96 228.95 131.92C199.17 143.09 179.68 158.36 171.02 177.3C153.89 214.8 178.73 267.15 244.84 332.92C288.08 375.93 305.59 415.61 296.88 450.86C288.29 485.66 254.94 516.66 194.92 545.63C143.33 570.54 81.39 589.6 26.74 606.42C-41.27 627.35 -95 643.89 -95.75 661.81C-96.08 669.62 -86.17 677.48 -65.45 685.82L-65.83 686.75Z" fill="#181818"/>
<path d="M-76.0701 692.37C-96.7401 684.35 -106.68 676.46 -106.46 668.26C-105.95 649.44 -51.43 631.6 17.59 609.01C72.8699 590.92 135.52 570.42 187.66 544.17C248.11 513.73 281.59 481.8 290.01 446.55C298.29 411.88 281.54 373.35 240.22 332.04C175.84 267.68 151.87 215.64 168.96 177.37C177.76 157.68 197.52 141.58 227.69 129.52C251.77 119.89 282.51 112.79 319.06 108.42C381.26 100.98 439.53 104.06 440.11 104.09C440.71 104.23 491.91 116.51 549.47 118.81C583.25 120.16 612.57 117.85 636.62 111.96C666.62 104.61 688.44 91.6199 701.48 73.3599C731.77 30.9299 715.44 -40.1501 652.95 -137.9L653.79 -138.44C716.53 -40.3101 732.84 31.1499 702.29 73.9399C689.11 92.3999 667.09 105.52 636.85 112.94C612.71 118.86 583.29 121.17 549.41 119.82C491.76 117.52 440.48 105.21 439.96 105.09C439.47 105.07 381.28 102 319.16 109.43C282.7 113.8 252.04 120.87 228.05 130.47C198.13 142.43 178.55 158.36 169.87 177.8C152.96 215.65 176.87 267.31 240.92 331.35C282.5 372.92 299.34 411.77 290.97 446.8C282.48 482.35 248.83 514.5 188.1 545.08C135.9 571.36 73.2099 591.88 17.8999 609.98C-50.7501 632.44 -104.97 650.19 -105.46 668.3C-105.67 676.03 -95.9401 683.6 -75.7101 691.45L-76.0701 692.37Z" fill="#181818"/>
<path d="M-86.41 698.21C-106.61 690.68 -116.38 683.07 -116.28 674.96C-116.06 655.97 -61.02 636.9 8.66 612.75C64.64 593.35 128.08 571.36 180.85 543.71C242.05 511.64 275.85 478.54 284.17 442.54C292.13 408.12 276.03 370.43 236.32 330.53C173.98 267.88 150.92 216.55 167.76 177.96C176.58 157.77 196.42 141 226.74 128.12C250.94 117.84 281.84 110 318.58 104.81C381.11 95.9799 439.69 97.93 440.28 97.95C440.88 98.08 491.91 109.42 549.42 110.55C583.17 111.21 612.52 108.27 636.65 101.82C666.75 93.77 688.74 80.2 702.02 61.48C732.67 18.28 717.69 -52.54 657.48 -149.02L658.33 -149.55C718.77 -52.7001 733.75 18.4899 702.84 62.0499C689.42 80.9599 667.24 94.67 636.91 102.78C612.69 109.26 583.26 112.2 549.4 111.54C491.79 110.41 440.68 99.0499 440.17 98.9299C439.68 98.92 381.17 96.9699 318.73 105.8C282.08 110.98 251.27 118.8 227.15 129.04C197.08 141.82 177.41 158.41 168.7 178.36C152.03 216.53 175.03 267.49 237.05 329.82C277.01 369.99 293.2 407.99 285.16 442.76C276.77 479.06 242.81 512.37 181.33 544.59C128.49 572.28 65.01 594.28 9 613.69C-60.31 637.71 -115.06 656.68 -115.27 674.97C-115.36 682.61 -105.8 689.9 -86.05 697.27L-86.41 698.21Z" fill="#181818"/>
<path d="M-96.8401 704.27C-116.57 697.21 -126.18 689.89 -126.21 681.88C-126.28 662.74 -70.6901 642.41 -0.310127 616.67C56.3899 595.93 120.66 572.43 174.1 543.34C236.09 509.6 270.23 475.33 278.44 438.59C286.07 404.46 270.61 367.61 232.48 329.08C172.16 268.12 149.98 217.5 166.56 178.63C175.39 157.92 195.33 140.47 225.81 126.76C250.14 115.82 281.21 107.22 318.17 101.2C381.07 90.95 440.01 91.76 440.6 91.76C441.2 91.88 491.84 102.23 549.17 102.23C549.31 102.23 549.45 102.23 549.59 102.23C602.58 102.18 672.18 93 702.85 49.51C733.86 5.52998 720.2 -65.04 662.25 -160.26L663.1 -160.78C721.28 -65.19 734.92 5.74995 703.66 50.08C689.99 69.46 667.63 83.75 637.2 92.57C612.9 99.61 583.41 103.2 549.57 103.22C549.44 103.22 549.3 103.22 549.17 103.22C491.74 103.22 441 92.85 440.5 92.74C439.94 92.74 381.1 91.95 318.33 102.18C281.46 108.19 250.48 116.76 226.23 127.67C195.99 141.27 176.23 158.55 167.5 179.02C151.09 217.48 173.2 267.73 233.21 328.37C271.59 367.16 287.15 404.31 279.43 438.8C271.14 475.84 236.85 510.33 174.59 544.22C121.09 573.34 56.7799 596.86 0.0498581 617.6C-69.9601 643.2 -125.26 663.43 -125.19 681.86C-125.16 689.39 -115.77 696.41 -96.4801 703.31L-96.8401 704.27Z" fill="#181818"/>
<path d="M-107.37 710.55C-126.65 703.96 -136.1 696.91 -136.25 689.02C-136.61 669.75 -80.45 648.14 -9.34999 620.79C101.99 577.96 254.48 519.3 272.78 434.71C280.1 400.9 265.25 364.9 228.66 327.71C170.32 268.42 149.01 218.53 165.3 179.42C174.15 158.18 194.17 140.04 224.82 125.49C249.29 113.87 280.55 104.5 317.75 97.64C381.05 85.96 440.4 85.58 440.99 85.58C441.59 85.68 492.36 95.15 549.87 93.91C602.88 92.77 672.63 82.06 703.87 37.47C735.23 -7.28 722.88 -77.63 667.17 -171.61L668.03 -172.12C723.97 -77.77 736.3 -7.06 704.69 38.04C690.77 57.9 668.23 72.8 637.67 82.33C613.27 89.94 583.73 94.17 549.87 94.9C492.25 96.14 441.4 86.66 440.89 86.56C440.39 86.57 381.12 86.94 317.91 98.61C280.8 105.46 249.62 114.8 225.24 126.38C194.82 140.82 174.96 158.79 166.22 179.79C150.1 218.5 171.34 268.02 229.37 327C266.21 364.44 281.15 400.75 273.75 434.91C265.57 472.69 230.93 508.36 167.85 543.95C113.65 574.53 48.49 599.6 -8.99998 621.71C-79.73 648.92 -135.61 670.41 -135.25 688.99C-135.11 696.41 -125.89 703.16 -107.05 709.6L-107.37 710.55Z" fill="#181818"/>
<path d="M-118 717.07C-136.84 710.92 -146.13 704.15 -146.4 696.38C-147.06 676.99 -90.3001 654.09 -18.4401 625.09C94.4899 579.52 249.16 517.12 267.22 430.88C274.23 397.43 259.98 362.28 224.89 326.41C168.52 268.78 148.04 219.62 164.03 180.3C172.88 158.53 193.01 139.68 223.85 124.26C248.47 111.96 279.95 101.8 317.4 94.07C381.15 80.92 440.94 79.35 441.54 79.34C442.14 79.43 492.82 87.95 550.38 85.52C603.44 83.28 673.37 71.02 705.2 25.32C736.91 -20.2 725.86 -90.33 672.35 -183.11L673.22 -183.61C726.94 -90.46 737.98 -19.98 706.03 25.89C691.86 46.23 669.11 61.75 638.42 72.01C613.91 80.21 584.3 85.09 550.41 86.52C492.74 88.95 441.97 80.42 441.47 80.33C440.97 80.35 381.25 81.92 317.59 95.05C280.22 102.76 248.83 112.89 224.29 125.15C193.68 140.45 173.72 159.13 164.96 180.67C149.13 219.59 169.54 268.38 225.61 325.71C260.95 361.84 275.28 397.29 268.2 431.09C260.14 469.6 225.14 506.46 161.2 543.79C106.28 575.85 40.2199 602.51 -18.0601 626.02C-89.5601 654.87 -146.03 677.65 -145.39 696.35C-145.14 703.66 -136.08 710.13 -117.68 716.13L-118 717.07Z" fill="#181818"/>
<path d="M-128.73 723.81C-147.15 718.1 -156.28 711.61 -156.66 703.95C-157.62 684.46 -100.24 660.25 -27.6 629.59C86.99 581.23 243.92 515 261.74 427.14C268.44 394.09 254.79 359.78 221.16 325.19C166.72 269.19 147.06 220.77 162.73 181.29C171.59 158.98 191.82 139.41 222.86 123.12C247.64 110.12 279.35 99.16 317.09 90.55C381.32 75.9 441.61 73.12 442.22 73.09C442.82 73.17 493.43 80.7401 551.09 77.1C604.23 73.75 674.38 59.92 706.82 13.07C738.88 -33.23 729.1 -103.15 677.77 -194.74L678.64 -195.23C730.18 -103.27 739.93 -33 707.64 13.64C693.2 34.4901 670.25 50.64 639.41 61.64C614.77 70.4301 585.07 75.97 551.14 78.11C493.38 81.75 442.68 74.17 442.17 74.09C441.67 74.12 381.45 76.9 317.31 91.53C279.65 100.12 248.04 111.04 223.33 124.01C192.51 140.18 172.44 159.58 163.67 181.66C148.16 220.75 167.74 268.8 221.88 324.49C255.76 359.34 269.5 393.94 262.73 427.34C254.78 466.56 219.4 504.63 154.58 543.72C98.91 577.3 31.91 605.57 -27.19 630.51C-99.48 661.02 -156.57 685.12 -155.64 703.9C-155.29 711.08 -146.38 717.28 -128.41 722.85L-128.73 723.81Z" fill="#181818"/>
<path d="M-139.58 730.79C-157.58 725.51 -166.57 719.28 -167.06 711.76C-168.33 692.2 -110.3 666.64 -36.8301 634.28C79.4699 583.06 238.76 512.9 256.33 423.44C262.74 390.81 249.65 357.36 217.44 324.02C164.91 269.64 146.05 221.98 161.38 182.37C170.23 159.51 190.57 139.21 221.83 122.03C246.79 108.31 278.74 96.54 316.79 87.04C381.55 70.87 442.38 66.84 442.99 66.8C443.59 66.87 494.17 73.49 551.94 68.63C605.19 64.15 675.59 48.74 708.65 0.709991C741.05 -46.36 732.54 -116.08 683.36 -206.52L684.24 -207C733.62 -116.2 742.11 -46.13 709.48 1.28C694.77 22.65 671.59 39.43 640.59 51.18C615.82 60.56 586.02 66.77 552.01 69.63C494.14 74.49 443.47 67.86 442.96 67.79C442.45 67.83 381.7 71.86 317.03 88.01C279.06 97.49 247.2 109.23 222.31 122.9C191.27 139.96 171.08 160.09 162.32 182.72C147.14 221.93 165.93 269.23 218.17 323.31C250.62 356.9 263.79 390.65 257.32 423.62C249.48 463.54 213.71 502.83 147.96 543.72C91.4999 578.84 23.5399 608.77 -36.4101 635.17C-109.52 667.37 -167.27 692.8 -166.04 711.67C-165.58 718.72 -156.83 724.65 -139.28 729.8L-139.58 730.79Z" fill="#181818"/>
<path d="M-150.53 738.01C-168.13 733.14 -176.97 727.18 -177.57 719.8C-179.14 700.18 -120.44 673.26 -46.1201 639.18C71.9599 585.02 233.68 510.86 251 419.83C257.12 387.66 244.59 355.06 213.77 322.93C163.11 270.14 145.02 223.25 160.01 183.57C168.85 160.15 189.3 139.11 220.8 121.03C245.95 106.59 278.17 93.99 316.55 83.57C381.88 65.84 443.29 60.5399 443.91 60.49C444.51 60.55 495.09 66.21 553 60.12C606.38 54.51 677.09 37.49 710.78 -11.75C743.51 -59.58 736.25 -129.12 689.19 -218.43L690.07 -218.9C737.32 -129.24 744.56 -59.36 711.6 -11.19C696.62 10.71 673.2 28.15 642.01 40.66C617.09 50.65 587.17 57.54 553.08 61.12C495.07 67.22 444.39 61.54 443.89 61.48C443.38 61.53 382.04 66.83 316.8 84.54C278.5 94.93 246.36 107.5 221.29 121.9C190.01 139.86 169.7 160.73 160.95 183.93C146.11 223.22 164.13 269.76 214.5 322.24C245.57 354.62 258.18 387.51 251.99 420.02C234.57 511.55 72.5799 585.84 -45.7001 640.08C-119.66 674 -178.08 700.79 -176.57 719.71C-176.02 726.63 -167.41 732.29 -150.26 737.04L-150.53 738.01Z" fill="#181818"/>
<path d="M-161.62 745.46C-178.83 740.99 -187.53 735.3 -188.23 728.05C-190.11 708.39 -130.71 680.09 -55.52 644.26C64.41 587.12 228.66 508.85 245.74 416.29C251.58 384.61 239.6 352.85 210.11 321.91C161.3 270.69 143.97 224.58 158.59 184.87C167.42 160.89 187.99 139.1 219.73 120.09C245.08 104.91 277.58 91.46 316.33 80.11C382.28 60.8 444.32 54.19 444.94 54.12C445.54 54.17 496.15 58.86 554.23 51.53C607.78 44.77 678.82 26.1201 713.17 -24.36C746.23 -72.96 740.2 -142.32 695.24 -230.52L696.13 -230.97C741.27 -142.42 747.28 -72.71 714 -23.79C698.73 -1.34998 675.07 16.76 643.68 30.04C618.59 40.65 588.54 48.22 554.35 52.53C496.16 59.87 445.46 55.17 444.96 55.12C444.44 55.18 382.48 61.79 316.62 81.08C277.96 92.4 245.54 105.82 220.26 120.95C188.72 139.83 168.29 161.45 159.55 185.21C145.07 224.53 162.33 270.29 210.86 321.21C240.58 352.4 252.66 384.45 246.75 416.46C229.58 509.52 65.06 587.91 -55.06 645.15C-129.9 680.81 -189.02 708.98 -187.21 727.94C-186.56 734.71 -178.1 740.12 -161.35 744.47L-161.62 745.46Z" fill="#181818"/>
<path d="M-172.81 753.15C-189.65 749.07 -198.21 743.63 -199 736.54C-201.18 716.87 -141.07 687.16 -64.9602 649.55C56.8798 589.35 223.73 506.89 240.56 412.84C246.14 381.67 234.67 350.76 206.49 320.97C159.5 271.3 142.89 225.98 157.15 186.29C165.96 161.75 186.66 139.19 218.66 119.25C244.22 103.32 277.03 89.0099 316.16 76.71C382.76 55.77 445.47 47.83 446.1 47.75C446.7 47.79 497.36 51.51 555.66 42.92C609.41 35 680.83 14.7 715.84 -37.06C749.23 -86.41 744.41 -155.6 701.53 -242.72L702.43 -243.16C745.49 -155.7 750.28 -86.17 716.67 -36.5C701.11 -13.5 677.19 5.28995 645.57 19.36C620.31 30.5999 590.1 38.86 555.78 43.91C497.37 52.51 446.62 48.78 446.12 48.74C445.59 48.8199 382.96 56.75 316.45 77.66C277.4 89.94 244.68 104.22 219.19 120.1C187.38 139.92 166.83 162.3 158.09 186.63C143.98 225.94 160.51 270.91 207.22 320.28C235.64 350.31 247.19 381.51 241.55 413.01C224.63 507.56 57.5098 590.14 -64.5202 650.44C-140.28 687.88 -200.12 717.45 -198.01 736.42C-197.27 743.05 -188.95 748.2 -172.58 752.17L-172.81 753.15Z" fill="#181818"/>
<path d="M-184.14 761.09C-200.61 757.39 -209.05 752.21 -209.93 745.26C-212.42 725.59 -151.56 694.46 -74.5001 655.04C49.3099 591.7 218.87 504.96 235.46 409.45C240.78 378.82 229.83 348.75 202.91 320.08C157.7 271.93 141.81 227.43 155.68 187.8C164.47 162.69 185.29 139.36 217.58 118.47C243.37 101.78 276.49 86.58 316.03 73.31C383.33 50.71 446.76 41.4 447.39 41.31L447.44 41.3H447.49C447.99 41.33 498.73 44.0699 557.27 34.21C611.24 25.11 683.08 3.13995 718.78 -49.92C752.49 -100.02 748.88 -169.05 708.04 -255.11L708.94 -255.54C749.94 -169.14 753.53 -99.77 719.61 -49.36C703.75 -25.79 679.55 -6.30003 647.7 8.55997C622.24 20.44 591.87 29.4 557.41 35.2C499.59 44.94 449.37 42.4099 447.48 42.3C445.4 42.61 382.75 51.96 316.33 74.26C276.87 87.51 243.83 102.67 218.11 119.31C186.02 140.08 165.33 163.24 156.62 188.13C142.89 227.38 158.71 271.54 203.64 319.4C230.79 348.31 241.83 378.67 236.45 409.62C219.77 505.63 49.9499 592.5 -74.0401 655.93C-150.74 695.17 -211.33 726.16 -208.93 745.13C-208.11 751.61 -199.93 756.51 -183.92 760.11L-184.14 761.09Z" fill="#181818"/>
<path d="M-195.61 769.28C-211.73 765.94 -220.04 761.02 -221 754.22C-223.79 734.58 -162.16 702 -84.1299 660.75C41.7201 594.22 214.07 503.09 230.43 406.17C235.51 376.1 225.05 346.87 199.35 319.28C155.89 272.63 140.69 228.95 154.17 189.43C162.93 163.75 183.89 139.64 216.47 117.78C242.5 100.31 275.96 84.2201 315.93 69.9501C383.97 45.6601 448.16 34.94 448.8 34.83L448.85 34.8201H448.9C449.41 34.8401 500.25 36.5901 559.07 25.4401C613.3 15.1501 685.59 -8.52997 722.01 -62.92C756.05 -113.75 753.62 -182.64 714.79 -267.66L715.7 -268.08C754.68 -182.72 757.08 -113.51 722.84 -62.3699C706.66 -38.2099 682.18 -18.02 650.08 -2.34998C624.42 10.17 593.86 19.85 559.24 26.42C501.15 37.44 450.82 35.8801 448.92 35.8201C446.83 36.1701 383.42 46.9101 316.26 70.8901C276.37 85.1301 242.98 101.19 217.03 118.61C184.64 140.35 163.81 164.29 155.12 189.75C141.77 228.89 156.9 272.24 200.09 318.59C226.01 346.41 236.56 375.93 231.43 406.33C214.97 503.75 42.36 595 -83.6699 661.63C-161.35 702.7 -222.7 735.14 -220.01 754.08C-219.11 760.4 -211.06 765.06 -195.4 768.3L-195.61 769.28Z" fill="#181818"/>
<path d="M-207.2 777.72C-222.99 774.73 -231.17 770.06 -232.22 763.42C-235.31 743.82 -172.88 709.76 -93.8501 666.64C34.0898 596.84 209.32 501.23 225.45 402.94C230.29 373.45 220.31 345.05 195.8 318.52C154.05 273.35 139.52 230.49 152.6 191.14C161.33 164.89 182.43 140 215.32 117.14C241.6 98.8799 275.42 81.8699 315.85 66.5899C384.67 40.5699 449.67 28.3999 450.31 28.2799L450.36 28.2699H450.41C450.92 28.2799 501.9 29.0299 561.02 16.5699C615.54 5.07996 688.32 -20.33 725.47 -76.09C759.82 -127.65 758.56 -196.39 721.73 -280.4L722.65 -280.8C759.63 -196.46 760.86 -127.4 726.31 -75.53C709.81 -50.7701 685.03 -29.86 652.66 -13.36C626.78 -0.180054 596.01 10.2299 561.22 17.5599C502.83 29.8699 452.35 29.3099 450.46 29.2799C448.35 29.6799 384.14 41.8499 316.2 67.5399C275.85 82.8 242.1 99.77 215.89 117.98C183.18 140.71 162.21 165.43 153.55 191.47C140.59 230.45 155.05 272.97 196.53 317.85C221.26 344.61 231.33 373.3 226.43 403.11C210.22 501.89 34.7499 597.62 -93.3801 667.52C-172.07 710.45 -234.22 744.36 -231.24 763.26C-230.27 769.43 -222.35 773.84 -207.03 776.74L-207.2 777.72Z" fill="#181818"/>
<path d="M-218.95 786.42C-234.41 783.78 -242.48 779.34 -243.6 772.86C-246.98 753.33 -183.74 717.78 -103.68 672.77C26.43 599.63 204.62 499.45 220.53 399.83C225.15 370.94 215.64 343.36 192.26 317.85C152.19 274.13 138.31 232.12 151 192.98C159.69 166.17 180.94 140.47 214.16 116.62C240.7 97.5599 274.9 79.6199 315.82 63.2899C385.46 35.4999 451.31 21.8499 451.97 21.7099C452.58 21.6999 503.73 21.4399 563.19 7.64993C618.02 -5.07007 691.35 -32.23 729.25 -89.39C763.92 -141.67 763.82 -210.28 728.95 -293.29L729.87 -293.68C764.88 -210.33 764.96 -141.41 730.08 -88.83C713.25 -63.4601 688.16 -41.8101 655.49 -24.4701C629.38 -10.6201 598.39 0.519958 563.39 8.63995C503.82 22.46 452.58 22.7099 452.07 22.7099C451.51 22.8299 385.74 36.4699 316.18 64.2299C275.34 80.5299 241.21 98.4299 214.74 117.44C181.7 141.17 160.57 166.69 151.95 193.3C139.38 232.07 153.19 273.75 193 317.19C216.59 342.93 226.18 370.79 221.52 400C205.53 500.09 27.09 600.41 -103.19 673.65C-182.91 718.47 -245.88 753.87 -242.62 772.7C-241.58 778.71 -233.78 782.88 -218.79 785.44L-218.95 786.42Z" fill="#181818"/>
<path d="M-230.84 795.37C-245.99 793.06 -253.94 788.87 -255.13 782.55C-258.8 763.11 -194.72 726.04 -113.59 679.1C18.7498 602.54 199.99 497.69 215.7 396.8C220.1 368.52 211.04 341.76 188.78 317.24C150.36 274.94 137.11 233.78 149.39 194.9C158.04 167.52 179.45 141.02 213.01 116.15C239.83 96.28 274.42 77.39 315.85 60C386.35 30.4 453.1 15.23 453.77 15.08C454.38 15.06 505.72 13.78 565.56 -1.35999C620.74 -15.32 694.65 -44.27 733.34 -102.86C768.33 -155.85 769.37 -224.32 736.43 -306.38L737.36 -306.75C770.43 -224.37 769.36 -155.59 734.18 -102.31C717.01 -76.31 691.58 -53.91 658.6 -35.72C632.24 -21.18 601.01 -9.30002 565.79 -0.390015C505.84 14.78 454.41 16.06 453.89 16.07C453.32 16.21 386.65 31.37 316.23 60.93C274.88 78.29 240.36 97.14 213.61 116.96C180.22 141.7 158.94 168.03 150.35 195.2C138.18 233.72 151.36 274.55 189.52 316.56C212 341.31 221.14 368.35 216.69 396.94C200.9 498.32 19.4199 603.31 -113.09 679.96C-193.88 726.7 -257.69 763.61 -254.15 782.35C-253.06 788.12 -245.17 792.17 -230.69 794.37L-230.84 795.37Z" fill="#181818"/>
<path d="M-242.88 804.59C-257.74 802.6 -265.57 798.64 -266.83 792.48C-270.79 773.15 -205.84 734.53 -123.62 685.65C11.01 605.61 195.4 495.98 210.91 393.87C215.11 366.22 206.49 340.26 185.29 316.7C148.48 275.8 135.84 235.5 147.72 196.92C156.33 168.97 177.9 141.67 211.82 115.77C238.92 95.07 273.94 75.21 315.9 56.74C387.31 25.3 455 8.56003 455.68 8.39001C456.29 8.35001 507.85 6.04001 568.1 -10.47C623.66 -25.69 698.18 -56.45 737.67 -116.49C772.98 -170.18 775.14 -238.53 744.1 -319.65L745.03 -320.01C776.19 -238.57 774 -169.92 738.5 -115.94C720.98 -89.3 695.2 -66.13 661.9 -47.08C635.27 -31.85 603.79 -19.21 568.34 -9.48999C507.99 7.04001 456.33 9.36002 455.82 9.38C455.24 9.53 387.63 26.25 316.29 57.66C274.41 76.1 239.46 95.92 212.42 116.57C178.67 142.34 157.22 169.48 148.67 197.22C136.9 235.44 149.46 275.41 186.03 316.03C207.44 339.82 216.14 366.06 211.89 394.02C196.32 496.6 11.7 606.36 -123.1 686.51C-204.98 735.19 -269.66 773.64 -265.85 792.28C-264.7 797.9 -256.93 801.7 -242.75 803.6L-242.88 804.59Z" fill="#181818"/>
</g>
<g clip-path="url(#clip2_894_3903)">
<path d="M244.656 201.984C239.598 201.984 234.486 202.529 229.446 203.563C239.903 189.486 246.347 171.587 246.347 155.331C246.344 122.012 219.329 95 186 95C152.674 95 125.656 122.012 125.656 155.331C125.656 171.587 132.1 189.486 142.558 203.563C137.518 202.529 132.402 201.984 127.347 201.984C94.018 201.984 67 229.312 67 263.025C67 296.739 94.018 324.067 127.344 324.067C144.841 324.067 163.035 315.449 176.379 302.392C169.58 321.278 153.418 341.202 144.181 349.916C141.861 352.106 143.423 356 146.611 356H225.389C228.577 356 230.139 352.106 227.823 349.916C218.597 341.209 202.571 321.483 195.793 302.553C209.119 315.517 227.231 324.067 244.656 324.067C277.986 324.067 305 296.739 305 263.025C305 229.312 277.982 201.984 244.656 201.984Z" fill="#ED2224"/>
</g>
<path d="M46.6472 34.1168C46.0309 34.1168 45.408 34.1836 44.7938 34.3104C46.068 32.5845 46.8532 30.3899 46.8532 28.3969C46.8528 24.3119 43.5611 21 39.5 21C35.4393 21 32.1472 24.3119 32.1472 28.3969C32.1472 30.3899 32.9324 32.5845 34.2066 34.3104C33.5925 34.1836 32.9691 34.1168 32.3532 34.1168C28.2921 34.1168 25 37.4673 25 41.6008C25 45.7342 28.2921 49.0848 32.3528 49.0848C34.4848 49.0848 36.7017 48.0282 38.3277 46.4273C37.4992 48.7429 35.5299 51.1856 34.4044 52.2541C34.1218 52.5225 34.3121 53 34.7005 53H44.2995C44.6879 53 44.8782 52.5225 44.5961 52.2541C43.4719 51.1865 41.5192 48.768 40.6933 46.4471C42.3171 48.0366 44.5239 49.0848 46.6472 49.0848C50.7083 49.0848 54 45.7342 54 41.6008C54 37.4673 50.7079 34.1168 46.6472 34.1168Z" fill="#ED2224"/>
</g>
<rect x="1" y="1" width="368" height="483" rx="15" stroke="#ED2224"/>
<defs>
<clipPath id="clip0_894_3903">
<rect x="1" y="1" width="368" height="483" rx="15" fill="white"/>
</clipPath>
<clipPath id="clip1_894_3903">
<rect width="1033.89" height="1124.59" fill="white" transform="translate(-147 -320)"/>
</clipPath>
<clipPath id="clip2_894_3903">
<rect width="238" height="261" fill="white" transform="translate(67 95)"/>
</clipPath>
</defs>
</svg>
