<svg xmlns="http://www.w3.org/2000/svg" width="50" height="32" fill="none"><path fill="#252F3E" d="M15.529 11.622c0 .658.063 1.192.175 1.584.128.391.287.819.511 1.281a.84.84 0 0 1 .112.41c0 .178-.096.355-.304.534l-1.005.747a.7.7 0 0 1-.415.16c-.16 0-.32-.089-.48-.249a5.5 5.5 0 0 1-.574-.836c-.16-.303-.32-.641-.495-1.05q-1.868 2.456-4.693 2.456c-1.341 0-2.411-.428-3.193-1.282-.783-.854-1.182-1.993-1.182-3.417 0-1.513.48-2.74 1.453-3.666S7.706 6.905 9.35 6.905c.543 0 1.102.054 1.693.143.59.089 1.197.231 1.835.391V6.14c0-1.352-.255-2.296-.75-2.847-.51-.552-1.373-.82-2.602-.82-.559 0-1.134.072-1.724.232s-1.166.356-1.724.605a4 4 0 0 1-.56.232.9.9 0 0 1-.255.053c-.223 0-.335-.178-.335-.552v-.872c0-.284.032-.498.112-.623.08-.124.223-.249.447-.373q.839-.48 2.011-.801a8.7 8.7 0 0 1 2.49-.338c1.9 0 3.29.48 4.184 1.441.878.961 1.325 2.42 1.325 4.378v5.767zm-6.482 2.705c.527 0 1.07-.107 1.644-.32.575-.214 1.086-.605 1.517-1.14.255-.338.447-.711.543-1.138s.16-.944.16-1.549v-.747a12 12 0 0 0-1.47-.303 11 11 0 0 0-1.5-.107c-1.07 0-1.852.232-2.379.712s-.782 1.157-.782 2.047c0 .836.192 1.46.59 1.886.384.446.943.66 1.677.66m12.82 1.922c-.288 0-.48-.053-.607-.178-.128-.107-.24-.356-.336-.694L17.173 1.62c-.096-.356-.144-.588-.144-.712 0-.285.128-.445.383-.445h1.565c.303 0 .51.053.622.178.128.106.224.356.32.694L22.6 13.117l2.49-11.782c.08-.356.176-.588.303-.694.128-.107.352-.178.639-.178h1.277c.303 0 .511.053.639.178.127.106.24.356.303.694l2.522 11.924 2.762-11.924c.096-.356.208-.588.32-.694.127-.107.335-.178.622-.178h1.485c.255 0 .399.142.399.445 0 .089-.016.178-.032.284-.016.107-.048.25-.112.445l-3.847 13.758q-.144.534-.335.694c-.128.107-.336.178-.607.178h-1.373c-.303 0-.51-.053-.639-.178-.127-.125-.239-.356-.303-.712L26.64 3.897 24.18 15.36c-.08.356-.175.588-.303.712-.128.125-.351.178-.639.178zm20.513.48c-.83 0-1.66-.106-2.458-.32-.798-.213-1.42-.445-1.836-.711-.255-.16-.43-.339-.495-.499a1.4 1.4 0 0 1-.096-.498v-.908c0-.374.128-.552.368-.552a.8.8 0 0 1 .287.054c.096.035.24.107.4.178.542.267 1.133.48 1.755.623a8.6 8.6 0 0 0 1.9.213c1.006 0 1.788-.195 2.33-.587.544-.392.83-.961.83-1.69 0-.5-.143-.909-.43-1.247s-.83-.64-1.613-.925l-2.314-.801c-1.166-.41-2.028-1.014-2.555-1.815a4.56 4.56 0 0 1-.798-2.581q0-1.122.431-1.976c.287-.57.67-1.067 1.15-1.459a4.9 4.9 0 0 1 1.66-.925A6.3 6.3 0 0 1 42.907 0a7 7 0 0 1 1.07.071c.367.054.702.125 1.038.196.319.089.622.178.91.285q.43.16.67.32c.224.142.383.285.479.445q.144.213.144.587v.837c0 .374-.128.57-.368.57-.127 0-.335-.072-.606-.214q-1.365-.694-3.065-.694c-.91 0-1.629.16-2.124.498-.494.338-.75.854-.75 1.584 0 .498.16.925.48 1.264.318.338.909.676 1.755.978l2.267.801c1.15.41 1.98.98 2.474 1.709s.735 1.566.735 2.492c0 .765-.144 1.459-.415 2.064a4.7 4.7 0 0 1-1.166 1.566c-.495.445-1.085.766-1.772.997a6.9 6.9 0 0 1-2.282.374"/><path fill="#F90" fill-rule="evenodd" d="M45.396 25.378C40.144 29.703 32.513 32 25.952 32c-9.196 0-17.481-3.79-23.74-10.091-.494-.498-.047-1.175.543-.783 6.77 4.378 15.119 7.03 23.755 7.03 5.827 0 12.229-1.353 18.12-4.13.878-.444 1.628.642.766 1.353" clip-rule="evenodd"/><path fill="#F90" fill-rule="evenodd" d="M47.583 22.602c-.67-.96-4.438-.462-6.146-.23-.51.07-.59-.428-.128-.802 3.002-2.35 7.935-1.673 8.51-.89.574.801-.16 6.3-2.97 8.935-.431.409-.846.196-.655-.338.639-1.762 2.06-5.731 1.39-6.675" clip-rule="evenodd"/></svg>