<svg xmlns="http://www.w3.org/2000/svg" width="32" height="32" fill="none"><g fill="#2BA977"><path d="M12.977 0H19v24.285c-3.085.513-5.357.715-7.814.715C3.83 24.993 0 22.102 0 16.55c0-5.35 4.062-8.822 10.357-8.822.976 0 1.72.067 2.62.27zm.21 12.374c-.705-.203-1.286-.27-2.03-.27-3.047 0-4.806 1.635-4.806 4.5 0 2.788 1.682 4.329 4.767 4.329.667 0 1.21-.033 2.07-.135z"/><path d="M29 8.286V20.31c0 4.141-.36 6.132-1.413 7.85-.984 1.65-2.28 2.69-4.958 3.84L17 29.709c2.678-1.075 3.974-2.025 4.802-3.474.866-1.483 1.14-3.2 1.14-7.715V8.287zM22.33 0h6.066v5.324H22.33z"/></g></svg>