<svg xmlns="http://www.w3.org/2000/svg" width="32" height="32" fill="none"><g fill="#161614"><path d="M16 0C7.165 0 0 7.345 0 16.405c0 7.248 4.585 13.398 10.942 15.567.8.152 1.093-.356 1.093-.79 0-.39-.015-1.683-.022-3.054-4.451.993-5.39-1.935-5.39-1.935-.728-1.896-1.777-2.4-1.777-2.4-1.451-1.019.11-.998.11-.998 1.606.116 2.452 1.69 2.452 1.69 1.427 2.509 3.743 1.784 4.657 1.364.143-1.06.558-1.784 1.015-2.193-3.553-.415-7.29-1.822-7.29-8.108 0-1.79.626-3.254 1.65-4.403-.167-.413-.715-2.082.154-4.341 0 0 1.344-.441 4.401 1.681A15 15 0 0 1 16 7.933c1.36.006 2.73.189 4.008.552 3.054-2.122 4.396-1.681 4.396-1.681.87 2.26.323 3.928.157 4.34 1.026 1.15 1.646 2.613 1.646 4.404 0 6.301-3.742 7.689-7.305 8.095.573.509 1.085 1.507 1.085 3.038 0 2.195-.019 3.961-.019 4.502 0 .436.288.948 1.1.787C27.42 29.798 32 23.65 32 16.405 32 7.345 24.836 0 16 0"/><path d="M5.993 23.37c-.035.081-.16.106-.274.05-.116-.054-.182-.165-.144-.247.035-.083.16-.107.276-.05.116.053.182.165.142.247m.787.72c-.076.073-.225.039-.327-.076-.104-.114-.124-.267-.047-.34.08-.073.224-.04.329.075.104.116.125.268.045.341m.54.921c-.098.07-.258.005-.357-.141s-.099-.321.002-.391c.099-.07.257-.007.357.137.098.149.098.324-.002.395m.913 1.067c-.088.1-.274.073-.411-.063-.14-.132-.179-.32-.091-.419.089-.1.277-.071.414.063.14.132.182.321.088.42m1.18.36c-.038.129-.218.187-.4.133-.18-.056-.299-.207-.262-.337s.218-.19.4-.132c.181.056.3.206.262.336m1.343.153c.005.136-.149.248-.34.25-.19.004-.345-.105-.347-.238 0-.137.15-.248.341-.251.19-.004.346.105.346.24m1.32-.052c.022.132-.11.268-.299.304-.185.035-.357-.047-.381-.178-.023-.135.112-.27.297-.306.19-.033.359.046.383.18"/></g></svg>