<svg xmlns="http://www.w3.org/2000/svg" width="32" height="32" fill="none"><g fill="#8CC84B"><path d="M14.556.341c.875-.454 2.013-.456 2.887 0 4.395 2.254 8.792 4.504 13.186 6.76.826.422 1.38 1.256 1.37 2.12v13.56c.007.9-.6 1.754-1.472 2.167q-6.57 3.363-13.14 6.726c-.892.463-2.053.428-2.918-.073q-1.971-1.035-3.942-2.069c-.269-.145-.571-.26-.76-.497.167-.205.466-.23.71-.32.548-.158 1.051-.412 1.555-.658.127-.08.283-.05.405.022 1.123.584 2.236 1.185 3.363 1.764.24.126.484-.041.69-.145 4.298-2.205 8.602-4.401 12.9-6.607a.38.38 0 0 0 .234-.381q.002-6.71.002-13.419c.018-.18-.097-.345-.276-.418-4.365-2.231-8.728-4.466-13.093-6.697a.49.49 0 0 0-.514 0C11.378 4.406 7.016 6.643 2.65 8.874c-.178.073-.298.236-.277.416v13.42a.35.35 0 0 0 .054.222.4.4 0 0 0 .184.154q1.746.898 3.496 1.792c.657.32 1.463.511 2.186.265.639-.207 1.086-.798 1.074-1.413.006-4.447-.003-8.894.005-13.34-.016-.198.19-.36.401-.342.56-.004 1.12-.007 1.68.001a.363.363 0 0 1 .366.407c-.003 4.474.006 8.95-.004 13.424.001 1.193-.539 2.49-1.754 3.074-1.498.704-3.349.555-4.828-.12-1.281-.58-2.503-1.265-3.761-1.887C.598 24.538-.006 23.68 0 22.78V9.222c-.01-.883.566-1.732 1.418-2.149Q7.988 3.708 14.556.341"/><path d="M18.378 9.734c1.91-.112 3.955-.066 5.674.787 1.33.655 2.069 2.028 2.092 3.37-.037.181-.246.28-.436.268-.554 0-1.109.007-1.663-.003-.235.008-.372-.188-.401-.377-.16-.642-.545-1.278-1.211-1.588-1.022-.464-2.207-.44-3.322-.43-.814.038-1.689.102-2.378.537-.53.328-.69.992-.501 1.527.178.384.666.508 1.066.622 2.302.547 4.742.492 7 1.211.935.293 1.85.863 2.17 1.752.418 1.19.234 2.613-.7 3.569-.756.786-1.859 1.214-2.958 1.447-1.463.296-2.981.303-4.466.172-1.397-.145-2.85-.478-3.93-1.341-.921-.727-1.372-1.859-1.327-2.952.01-.184.213-.313.408-.297a92 92 0 0 1 1.674 0 .376.376 0 0 1 .4.351c.103.612.356 1.254.944 1.616 1.134.665 2.558.62 3.857.638 1.076-.044 2.284-.057 3.162-.702.463-.368.6-.984.475-1.514-.136-.447-.651-.656-1.094-.792-2.273-.652-4.74-.416-6.99-1.153-.914-.294-1.797-.848-2.148-1.7-.49-1.205-.266-2.696.766-3.62 1.005-.918 2.457-1.272 3.837-1.398"/></g></svg>