<svg xmlns="http://www.w3.org/2000/svg" width="32" height="32" fill="none"><path fill="url(#a)" d="M15.885 0C7.76 0 8.268 3.541 8.268 3.541l.01 3.67h7.752v1.1H5.198S0 7.72 0 15.96s4.537 7.947 4.537 7.947h2.708v-3.823s-.146-4.561 4.465-4.561h7.689s4.32.07 4.32-4.197V4.27S24.373 0 15.884 0M11.61 2.467a1.39 1.39 0 0 1 1.289.865 1.407 1.407 0 0 1-.755 1.833 1.39 1.39 0 0 1-1.52-.304 1.4 1.4 0 0 1-.409-.992 1.41 1.41 0 0 1 .861-1.295c.17-.07.351-.107.534-.107"/><path fill="url(#b)" d="M16.115 32c8.124 0 7.616-3.542 7.616-3.542l-.009-3.669H15.97v-1.101h10.831S32 24.28 32 16.04s-4.538-7.948-4.538-7.948h-2.707v3.823s.146 4.561-4.465 4.561H12.6s-4.32-.07-4.32 4.197v7.056S7.625 32 16.115 32m4.275-2.468a1.39 1.39 0 0 1-1.29-.865 1.406 1.406 0 0 1 .756-1.832 1.39 1.39 0 0 1 1.52.303 1.4 1.4 0 0 1 .408.992 1.41 1.41 0 0 1-.86 1.296c-.17.07-.351.106-.534.106"/><defs><linearGradient id="a" x1="3.075" x2="19.015" y1="2.878" y2="18.577" gradientUnits="userSpaceOnUse"><stop stop-color="#387EB8"/><stop offset="1" stop-color="#366994"/></linearGradient><linearGradient id="b" x1="12.809" x2="29.922" y1="13.012" y2="29.106" gradientUnits="userSpaceOnUse"><stop stop-color="#FFE052"/><stop offset="1" stop-color="#FFC331"/></linearGradient></defs></svg>