<svg xmlns="http://www.w3.org/2000/svg" width="32" height="32" fill="none"><g fill-rule="evenodd" clip-rule="evenodd"><path fill="#36C5F0" d="M11.733 0a3.199 3.199 0 1 0 0 6.399h3.201V3.2A3.2 3.2 0 0 0 11.734 0m0 8.533H3.2a3.2 3.2 0 0 0-.002 6.4h8.534a3.2 3.2 0 1 0 0-6.4"/><path fill="#2EB67D" d="M32 11.733a3.2 3.2 0 0 0-6.401 0v3.2h3.2a3.2 3.2 0 0 0 3.2-3.2m-8.534 0V3.199a3.2 3.2 0 0 0-6.4 0v8.534a3.2 3.2 0 1 0 6.4 0"/><path fill="#ECB22E" d="M20.267 32.001a3.2 3.2 0 1 0 0-6.399h-3.2v3.2a3.2 3.2 0 0 0 3.2 3.199m0-8.535H28.8a3.2 3.2 0 0 0 .002-6.4h-8.534a3.2 3.2 0 0 0-.001 6.4"/><path fill="#E01E5A" d="M0 20.266a3.2 3.2 0 0 0 6.401 0v-3.2h-3.2A3.2 3.2 0 0 0 0 20.266m8.533 0v8.533a3.2 3.2 0 0 0 6.4.001v-8.532a3.2 3.2 0 0 0-6.4-.002"/></g></svg>