<svg xmlns="http://www.w3.org/2000/svg" width="32" height="32" fill="none"><path fill="url(#a)" d="M7.11 0H24.83c.862 0 1.699.138 2.511.425a7.06 7.06 0 0 1 3.036 2.15A7 7 0 0 1 31.913 6c.075.463.088.925.088 1.388v17.287c0 .55-.025 1.113-.138 1.65a7.1 7.1 0 0 1-1.687 3.338 7.1 7.1 0 0 1-3.123 2.012 7.5 7.5 0 0 1-2.237.325c-.337 0-17.756 0-18.018-.012A7.13 7.13 0 0 1 3.2 30.8 7.2 7.2 0 0 1 .763 28a7.06 7.06 0 0 1-.712-3.113V7.113A6.64 6.64 0 0 1 .713 4.05a7.1 7.1 0 0 1 2.412-2.812A7 7 0 0 1 6.71.024C6.836 0 6.973 0 7.11 0"/><path fill="url(#b)" d="M26.99 26.175a5 5 0 0 0-.375-.512 5.3 5.3 0 0 0-1.075-.976 3.3 3.3 0 0 0-1.687-.575c-.425-.024-.85.05-1.25.2-.4.138-.787.338-1.161.538-.438.225-.875.45-1.337.637-.55.226-1.125.4-1.712.526-.737.137-1.487.187-2.224.174a15 15 0 0 1-3.949-.6c-1.124-.337-2.199-.8-3.211-1.387a16.6 16.6 0 0 1-2.487-1.762 18 18 0 0 1-1.774-1.763A19 19 0 0 1 3.674 19.3a6 6 0 0 1-.375-.588L0 15.15V7.088C0 3.175 3.161 0 7.072 0h6.31l4.673 4.75c10.546 7.175 7.135 15.087 7.135 15.087s2.999 3.375 1.8 6.338"/><path fill="#fff" d="M18.08 4.75c10.546 7.175 7.135 15.087 7.135 15.087s2.999 3.388 1.787 6.35c0 0-1.237-2.075-3.311-2.075-2 0-3.174 2.076-7.197 2.076-8.96 0-13.195-7.488-13.195-7.488 8.072 5.313 13.582 1.55 13.582 1.55-3.636-2.113-11.37-12.212-11.37-12.212 6.734 5.737 9.646 7.25 9.646 7.25-1.737-1.438-6.61-8.463-6.61-8.463 3.898 3.95 11.645 9.463 11.645 9.463 2.2-6.1-2.111-11.538-2.111-11.538"/><defs><linearGradient id="a" x1="19.03" x2="12.982" y1="-1.142" y2="33.145" gradientUnits="userSpaceOnUse"><stop stop-color="#FAAE42"/><stop offset="1" stop-color="#EF3E31"/></linearGradient><linearGradient id="b" x1="16.32" x2="11.894" y1=".517" y2="25.611" gradientUnits="userSpaceOnUse"><stop stop-color="#E39F3A"/><stop offset="1" stop-color="#D33929"/></linearGradient></defs></svg>